<svg width="107" height="41" viewBox="0 0 107 41" fill="none" xmlns="http://www.w3.org/2000/svg">
<g clip-path="url(#clip0_1_3877)">
<path d="M25.6173 13.8379L25.0272 12.8015C24.9809 12.7203 24.9164 12.6509 24.8389 12.5987C24.7614 12.5465 24.6728 12.5129 24.5801 12.5005C24.4875 12.4882 24.3932 12.4974 24.3047 12.5275C24.2162 12.5577 24.1359 12.6078 24.0699 12.6741L22.7126 14.0302C22.6133 14.13 22.5516 14.2609 22.5378 14.401C22.5241 14.541 22.5591 14.6815 22.637 14.7986C23.132 15.5549 23.5286 16.3712 23.8173 17.2277C24.3568 18.8288 24.5074 20.5353 24.2568 22.2062C24.0062 23.8771 23.3615 25.4643 22.3761 26.8367C21.3906 28.2091 20.0926 29.3272 18.5895 30.0987C17.0864 30.8702 15.4212 31.2728 13.7316 31.2733C11.9923 31.2781 10.2788 30.8528 8.74365 30.0352L11.0393 27.7383C12.4619 28.2764 14.0131 28.3754 15.4925 28.0225C16.9719 27.6697 18.3115 26.8812 19.3381 25.7591C20.3647 24.6369 21.0311 23.2326 21.2512 21.7277C21.4712 20.2229 21.2349 18.6866 20.5727 17.3174C20.5306 17.2297 20.4682 17.1534 20.3905 17.0949C20.3129 17.0363 20.2224 16.9973 20.1265 16.981C20.0307 16.9647 19.9323 16.9716 19.8397 17.0012C19.747 17.0308 19.6629 17.0821 19.5942 17.151L18.2203 18.5154C18.1471 18.5886 18.0938 18.6792 18.0655 18.7788C18.0372 18.8784 18.0348 18.9836 18.0586 19.0843L18.1767 19.5777C18.3798 20.4419 18.3261 21.3467 18.0224 22.1809C17.7186 23.0151 17.1779 23.7424 16.4667 24.2737C15.7554 24.805 14.9045 25.1171 14.0184 25.1717C13.1323 25.2263 12.2495 25.021 11.4784 24.581L10.8729 24.234C10.7572 24.1673 10.6227 24.1408 10.4904 24.1585C10.358 24.1763 10.2352 24.2372 10.1411 24.332L4.5335 29.9384C4.47229 29.9996 4.42486 30.0732 4.39438 30.1542C4.36391 30.2353 4.35109 30.3219 4.35679 30.4082C4.36249 30.4946 4.38657 30.5788 4.42743 30.6551C4.46829 30.7314 4.52497 30.7981 4.5937 30.8508L5.41991 31.4846C7.80259 33.3208 10.7283 34.3123 13.7363 34.3032C16.1312 34.3001 18.4833 33.6689 20.558 32.4727C22.6327 31.2764 24.3573 29.5569 25.5596 27.4857C26.762 25.4146 27.4001 23.0643 27.4102 20.6695C27.4204 18.2747 26.8021 15.9191 25.6173 13.8379Z" fill="white"/>
<path d="M22.0481 9.75994C19.6657 7.92313 16.7399 6.93112 13.7317 6.94019C11.3357 6.94205 8.98211 7.57265 6.90614 8.76897C4.83017 9.9653 3.10449 11.6855 1.90152 13.7576C0.698555 15.8297 0.0604247 18.1813 0.0508897 20.5772C0.0413547 22.9732 0.660749 25.3298 1.84719 27.4114L2.43734 28.4465C2.48382 28.5277 2.54836 28.597 2.62595 28.6492C2.70354 28.7014 2.79211 28.735 2.88479 28.7474C2.97746 28.7599 3.07176 28.7508 3.16037 28.721C3.24898 28.6911 3.32952 28.6412 3.39575 28.5752L4.75074 27.2202C4.8493 27.1203 4.91057 26.9896 4.92432 26.85C4.93808 26.7103 4.90346 26.5702 4.82628 26.453C4.33089 25.697 3.93424 24.8806 3.64597 24.0239C3.10651 22.4228 2.95587 20.7163 3.20649 19.0454C3.45711 17.3746 4.1018 15.7873 5.08727 14.4149C6.07273 13.0426 7.37068 11.9244 8.87382 11.1529C10.377 10.3815 12.0421 9.97883 13.7317 9.97829C15.4709 9.97436 17.1841 10.4009 18.7185 11.22L16.4216 13.5157C15.271 13.0796 14.0317 12.9294 12.8103 13.078C11.5888 13.2266 10.4217 13.6696 9.40924 14.3688C8.39677 15.0681 7.56922 16.0027 6.9977 17.0924C6.42618 18.182 6.12779 19.3942 6.12816 20.6247C6.12816 20.7509 6.16239 21.3269 6.17301 21.4261C6.26609 22.2978 6.50844 23.147 6.88945 23.9366C6.93164 24.0243 6.99423 24.1006 7.07197 24.1591C7.14971 24.2176 7.24034 24.2567 7.33627 24.273C7.43221 24.2893 7.53065 24.2824 7.62335 24.2528C7.71606 24.2232 7.80033 24.1719 7.86911 24.103L9.24298 22.728C9.31616 22.655 9.36951 22.5646 9.39802 22.4652C9.42652 22.3659 9.42922 22.2609 9.40587 22.1602L9.28784 21.6657C9.08447 20.8014 9.13792 19.8966 9.44164 19.0623C9.74536 18.228 10.2861 17.5005 10.9975 16.9693C11.7089 16.438 12.5599 16.1261 13.4462 16.0718C14.3324 16.0175 15.2151 16.2231 15.9861 16.6635L16.5916 17.0106C16.7074 17.0766 16.8418 17.1028 16.974 17.0851C17.1062 17.0674 17.2289 17.0068 17.3234 16.9126L22.9298 11.3061C22.9911 11.2449 23.0386 11.1713 23.0692 11.0902C23.0998 11.0091 23.1127 10.9225 23.1072 10.836C23.1016 10.7495 23.0776 10.6652 23.0368 10.5888C22.9961 10.5123 22.9395 10.4454 22.8708 10.3926L22.0481 9.75994Z" fill="white"/>
<path d="M45.0952 24.3982C44.9929 24.3152 44.8644 24.2712 44.7327 24.2743C44.601 24.2773 44.4747 24.3271 44.3764 24.4147C43.4971 25.097 42.4773 25.7284 40.9865 25.7284C38.2577 25.7284 36.0375 23.4304 36.0375 20.6035C36.0375 17.7767 38.2494 15.4586 40.9665 15.4586C42.1468 15.4586 43.4215 15.9555 44.3587 16.7782C44.4115 16.8394 44.4772 16.8883 44.551 16.9214C44.6248 16.9544 44.7051 16.9708 44.7859 16.9694C44.856 16.9638 44.9241 16.943 44.9852 16.9083C45.0464 16.8736 45.0992 16.826 45.14 16.7687L46.0276 15.8552C46.0841 15.8005 46.1287 15.7347 46.1586 15.662C46.1884 15.5893 46.2029 15.5112 46.2011 15.4326C46.1978 15.3528 46.1781 15.2745 46.1431 15.2026C46.1082 15.1307 46.0588 15.0668 45.9981 15.0148C44.4484 13.6645 42.8916 13.0626 40.9452 13.0626C36.7906 13.0626 33.4102 16.4642 33.4102 20.6448C33.4117 22.6433 34.2059 24.5596 35.6185 25.9733C37.0311 27.387 38.9467 28.1827 40.9452 28.1858C41.8841 28.1969 42.8158 28.0222 43.6868 27.6718C44.5579 27.3214 45.351 26.8021 46.0205 26.1439C46.0793 26.084 46.1254 26.0129 46.1563 25.9348C46.1871 25.8568 46.2019 25.7734 46.2 25.6895C46.1984 25.6227 46.1833 25.5569 46.1558 25.4961C46.1282 25.4352 46.0886 25.3806 46.0394 25.3354L45.0952 24.3982Z" fill="white"/>
<path d="M51.5551 13.2679H50.2107C50.0607 13.273 49.9183 13.335 49.8124 13.4413C49.7065 13.5477 49.645 13.6904 49.6406 13.8404V27.4139C49.6447 27.5641 49.706 27.7071 49.812 27.8137C49.9179 27.9203 50.0605 27.9825 50.2107 27.9875H51.5551C51.7053 27.9825 51.8479 27.9203 51.9538 27.8137C52.0598 27.7071 52.121 27.5641 52.1252 27.4139V13.8404C52.1208 13.6904 52.0593 13.5477 51.9534 13.4413C51.8475 13.335 51.7051 13.273 51.5551 13.2679Z" fill="white"/>
<path d="M67.4639 17.8368C67.4639 15.3181 65.3901 13.2679 62.8407 13.2679H57.2968C57.1454 13.2685 57.0004 13.3291 56.8935 13.4364C56.7867 13.5437 56.7267 13.6889 56.7267 13.8403V27.4139C56.7264 27.5655 56.7862 27.711 56.8931 27.8186C57 27.9261 57.1452 27.9869 57.2968 27.9875H58.6211C58.7713 27.9824 58.9139 27.9203 59.0198 27.8137C59.1258 27.7071 59.187 27.5641 59.1912 27.4139V22.3657H61.9696L64.6312 27.6948C64.6796 27.7821 64.7507 27.8548 64.8368 27.9052C64.923 27.9557 65.0212 27.9821 65.121 27.9816H66.7097C66.8101 27.9849 66.9096 27.9617 66.9981 27.9142C67.0866 27.8667 67.1609 27.7967 67.2137 27.7113C67.2639 27.6211 67.2903 27.5195 67.2903 27.4162C67.2903 27.3129 67.2639 27.2114 67.2137 27.1211L64.5132 22.0883C66.3379 21.2774 67.4639 19.6651 67.4639 17.8368ZM64.9794 17.8782C64.9794 19.1564 63.9254 20.2388 62.6778 20.2388H59.2325V15.6226H62.6731C63.923 15.6226 64.9747 16.6554 64.9747 17.8782H64.9794Z" fill="white"/>
<path d="M81.9358 24.3982C81.8335 24.3152 81.705 24.2712 81.5733 24.2743C81.4416 24.2773 81.3153 24.3271 81.217 24.4147C80.3376 25.097 79.3178 25.7284 77.8271 25.7284C75.0982 25.7284 72.8781 23.4304 72.8781 20.6035C72.8781 17.7767 75.0888 15.4586 77.8059 15.4586C78.9862 15.4586 80.2609 15.9555 81.1992 16.7782C81.2523 16.84 81.3186 16.8893 81.3931 16.9224C81.4676 16.9554 81.5486 16.9715 81.6301 16.9694C81.7002 16.9638 81.7682 16.943 81.8293 16.9083C81.8905 16.8736 81.9434 16.826 81.9842 16.7687L82.8717 15.8552C82.9281 15.8004 82.9725 15.7346 83.0021 15.6619C83.0318 15.5892 83.0461 15.5111 83.0441 15.4326C83.0412 15.3528 83.0218 15.2744 82.9871 15.2025C82.9523 15.1305 82.903 15.0666 82.8422 15.0148C81.296 13.6645 79.7392 13.0626 77.7929 13.0626C73.6382 13.0626 70.2578 16.4642 70.2578 20.6448C70.2594 22.6433 71.0536 24.5596 72.4661 25.9733C73.8787 27.387 75.7944 28.1827 77.7929 28.1858C78.7317 28.1968 79.6634 28.022 80.5344 27.6716C81.4054 27.3212 82.1986 26.802 82.8682 26.1439C82.927 26.0838 82.9732 26.0125 83.004 25.9343C83.0349 25.856 83.0497 25.7724 83.0476 25.6883C83.0461 25.6215 83.0311 25.5557 83.0035 25.4949C82.9759 25.434 82.9363 25.3794 82.8871 25.3342L81.9358 24.3982Z" fill="white"/>
<path d="M94.3 25.7084H88.965V13.8404C88.9606 13.6904 88.8992 13.5477 88.7933 13.4413C88.6874 13.335 88.5449 13.273 88.3949 13.2679H87.0506C86.8991 13.2686 86.7541 13.3292 86.6473 13.4364C86.5405 13.5437 86.4805 13.689 86.4805 13.8404V27.4139C86.4802 27.5655 86.54 27.7111 86.6469 27.8186C86.7538 27.9262 86.8989 27.9869 87.0506 27.9875H94.3C94.3752 27.9874 94.4496 27.9724 94.519 27.9435C94.5884 27.9146 94.6514 27.8723 94.7044 27.819C94.7575 27.7658 94.7995 27.7026 94.8281 27.6331C94.8568 27.5636 94.8714 27.4891 94.8713 27.4139V26.2867C94.872 26.2112 94.8579 26.1362 94.8295 26.0661C94.8012 25.9961 94.7592 25.9323 94.7061 25.8785C94.653 25.8248 94.5898 25.7821 94.5201 25.7528C94.4504 25.7236 94.3756 25.7085 94.3 25.7084Z" fill="white"/>
<path d="M106.374 15.5649C106.526 15.5643 106.671 15.5037 106.778 15.3964C106.884 15.2891 106.944 15.1438 106.944 14.9924V13.844C106.944 13.6926 106.884 13.5473 106.778 13.44C106.671 13.3328 106.526 13.2722 106.374 13.2715H98.2302C98.0788 13.2722 97.9338 13.3328 97.827 13.44C97.7201 13.5473 97.6602 13.6926 97.6602 13.844V27.4175C97.6598 27.5691 97.7197 27.7147 97.8266 27.8222C97.9334 27.9298 98.0786 27.9905 98.2302 27.9911H106.374C106.526 27.9905 106.671 27.9298 106.778 27.8222C106.885 27.7147 106.945 27.5691 106.944 27.4175V26.2903C106.944 26.1389 106.884 25.9937 106.778 25.8864C106.671 25.7791 106.526 25.7185 106.374 25.7179H100.119V21.6682H105.372C105.524 21.6679 105.669 21.6075 105.776 21.5002C105.883 21.3928 105.944 21.2474 105.944 21.0958V19.9485C105.939 19.7981 105.878 19.655 105.772 19.5483C105.666 19.4417 105.523 19.3797 105.372 19.3749H100.122V15.5649H106.374Z" fill="white"/>
</g>
<defs>
<clipPath id="clip0_1_3877">
<rect width="106.839" height="39.7721" fill="white" transform="translate(0 0.754028)"/>
</clipPath>
</defs>
</svg>
