<svg width="85" height="31" viewBox="0 0 85 31" fill="none" xmlns="http://www.w3.org/2000/svg">
<path d="M0 23.5488C0 19.6056 3.09168 16.4722 6.85136 16.4722C9.17048 16.4722 11.2079 17.6341 12.297 19.5353L11.2435 20.169C10.3301 18.6551 8.6782 17.7045 6.85136 17.7045C3.86496 17.7045 1.37013 20.2746 1.37013 23.5488C1.37013 26.8583 3.82939 29.4284 6.85136 29.4284C8.6782 29.4284 10.3301 28.513 11.2435 26.9991L12.297 27.6328C11.2079 29.534 9.17048 30.6959 6.85136 30.6959C3.09168 30.6606 0 27.5272 0 23.5488Z" fill="white"/>
<path d="M16.2323 18.1271C16.5837 17.0005 17.3918 16.4724 18.4461 16.4724C19.5004 16.4724 20.3085 17.0005 20.6592 18.1271L24.5242 30.4495H23.1896L22.0301 26.612L14.9326 26.6471L13.7026 30.4495H12.3673L16.2323 18.1271ZM15.2484 25.3797H21.6082L19.5004 18.5144C19.3247 17.951 18.9733 17.6694 18.4461 17.6694C17.8841 17.6694 17.5675 17.951 17.3918 18.5144L15.2484 25.3797Z" fill="white"/>
<path d="M26.4922 30.4494V16.6835H30.4631C33.9767 16.6835 36.3655 18.2326 36.3655 21.4364C36.3655 24.7458 33.8707 26.2245 30.498 26.2245H27.7926V30.4846H26.4922V30.4494ZM27.7926 17.9157V24.9571H30.4631C32.9928 24.9571 34.9954 23.9361 34.9954 21.4012C34.9954 18.9719 33.133 17.8805 30.4631 17.8805H27.7926V17.9157Z" fill="white"/>
<path d="M39.4918 16.6835V30.4494H38.1914V16.6835H39.4918Z" fill="white"/>
<path d="M50.8765 17.9157H46.4851V30.4494H45.1847V17.9157H40.8281V16.6835H50.8765V17.9157Z" fill="white"/>
<path d="M53.865 18.1271C54.2164 17.0005 55.0245 16.4724 56.0781 16.4724C57.1324 16.4724 57.9405 17.0005 58.2919 18.1271L62.1569 30.4495H60.7868L59.6272 26.6119L52.5297 26.6471L51.3353 30.4847H50L53.865 18.1271ZM52.8811 25.3797H59.2402L57.1324 18.5144C56.9567 17.951 56.6052 17.6694 56.0781 17.6694C55.5161 17.6694 55.2002 17.951 55.0245 18.5144L52.8811 25.3797Z" fill="white"/>
<path d="M65.4208 29.2171H72.5887V30.4494H65.4208C64.4369 30.4494 64.1211 29.9564 64.1211 29.1467V16.6835H65.4208V29.2171Z" fill="white"/>
<path d="M99.6857 19.8441C99.4211 20.7288 99.0672 21.5693 98.6703 22.3215C98.538 22.5868 98.4057 22.8081 98.2725 23.0735C97.5663 24.091 96.3301 24.7988 95.0054 24.7988C93.8138 24.7988 92.7099 24.2679 92.0037 23.4274C91.959 23.3831 91.9152 23.3389 91.8714 23.2947C91.1206 22.4541 90.0613 21.9232 88.8689 21.9232C88.5596 21.9232 88.295 21.9675 88.0304 22.0117V30.2844C87.1473 30.4613 86.1756 30.5498 85.2487 30.5498C76.8603 30.5498 70.1055 23.7371 70.1055 15.3759C70.1055 7.01487 76.8162 0.157898 85.2049 0.157898C86.7942 0.157898 88.3388 0.423329 89.7958 0.865715L85.2925 5.37805L88.0304 8.12084L97.6548 17.7648L98.0517 18.163L99.6857 19.8441Z" fill="url(#paint0_linear_1_3911)"/>
<path d="M0.496094 11.5225L1.6232 10.9579C2.22199 12.3343 3.59565 13.0754 5.35677 13.0754C7.25877 13.0754 8.70284 12.0872 8.70284 10.3931C8.70284 8.55788 7.04743 8.20495 5.2511 7.81672C3.17299 7.35796 0.813094 6.75793 0.813094 4.00508C0.813094 1.85215 2.82076 0.193359 5.21587 0.193359C7.18833 0.193359 8.98468 1.14629 9.72434 2.94625L8.63246 3.51095C7.99841 2.16979 6.80088 1.42863 5.18065 1.42863C3.56043 1.42863 2.15154 2.48743 2.15154 3.93448C2.15154 5.76973 3.84221 6.12267 5.67376 6.5109C7.75188 6.96973 10.0766 7.56969 10.0766 10.3579C10.0061 12.7931 7.96318 14.346 5.35677 14.346C3.17299 14.346 1.27099 13.3578 0.496094 11.5225Z" fill="white"/>
<path d="M12.3672 14.2046V0.404907H13.6704V6.72242H21.842V0.404907H23.1452V14.2046H21.842V7.92241H13.6704V14.1693H12.3672V14.2046Z" fill="white"/>
<path d="M27.8266 0.404968V14.2047H26.5234V0.404968H27.8266Z" fill="white"/>
<path d="M30.1875 14.2047L32.16 1.67552C32.336 0.6873 33.0405 0.157898 33.921 0.157898C34.6959 0.157898 35.4004 0.546128 35.6469 1.42846L38.6056 11.9106C38.676 12.2282 38.7465 12.3341 38.9226 12.3341C39.0987 12.3341 39.1691 12.1929 39.2396 11.9106L42.1982 1.46375C42.4449 0.581421 43.1493 0.157898 43.9242 0.157898C44.7695 0.157898 45.474 0.6873 45.65 1.71081L47.4464 14.1341H46.1432L44.4525 2.06374C44.3821 1.60493 44.2764 1.32258 43.8889 1.32258C43.6072 1.32258 43.3958 1.56964 43.2901 1.99316L40.2258 12.5106C40.0497 13.1459 39.5214 13.4988 38.9226 13.4988C38.359 13.4988 37.7955 13.1812 37.6194 12.5459L34.555 1.95786C34.4142 1.53435 34.2733 1.32258 33.9915 1.32258C33.7097 1.32258 33.4631 1.56964 33.3927 2.06374L31.5259 14.1694H30.1875V14.2047Z" fill="white"/>
<path d="M52.3431 1.85209C52.6954 0.722701 53.5055 0.193298 54.5622 0.193298C55.5836 0.193298 56.429 0.722701 56.7812 1.85209L60.6556 14.2048H59.3172L58.1548 10.3578L51.04 10.3931L49.8072 14.2048H48.4688L52.3431 1.85209ZM51.3569 9.12255H57.7322L55.6188 2.24032C55.4427 1.67563 55.0905 1.39328 54.5622 1.39328C53.9986 1.39328 53.6816 1.67563 53.5055 2.24032L51.3569 9.12255Z" fill="white"/>
<defs>
<linearGradient id="paint0_linear_1_3911" x1="95.0328" y1="0.157899" x2="77.1553" y2="32.7845" gradientUnits="userSpaceOnUse">
<stop stop-color="white" stop-opacity="0.3"/>
<stop offset="1" stop-color="white"/>
</linearGradient>
</defs>
</svg>
