<svg width="146" height="31" viewBox="0 0 146 31" fill="none" xmlns="http://www.w3.org/2000/svg">
<path d="M34.8238 7.52427H37.2553L44.059 23.3178H40.8467L39.3744 19.704H32.5261L31.0984 23.3178H27.9531L34.8238 7.52427ZM38.3929 17.2949L35.9614 10.8704L33.4853 17.2949H38.3929Z" fill="white"/>
<path d="M47.1525 7.52427H49.9632V20.7748H57.917V23.3178H47.1525V7.52427Z" fill="white"/>
<path d="M60.0585 7.52427H62.8692V20.7748H70.823V23.3178H60.0585V7.52427Z" fill="white"/>
<path d="M72.8976 7.52427H75.7083V23.3178H72.8976V7.52427Z" fill="white"/>
<path d="M85.6198 7.52427H88.0513L94.855 23.3178H91.6428L90.1705 19.704H83.3222L81.8945 23.3178H78.7492L85.6198 7.52427ZM89.189 17.2949L86.7575 10.8704L84.2814 17.2949H89.189Z" fill="white"/>
<path d="M97.9486 7.52427H101.674L109.325 19.2579H109.37V7.52427H112.181V23.3178H108.611L100.804 11.205H100.759V23.3178H97.9486V7.52427Z" fill="white"/>
<path d="M127.883 11.2273C127.303 10.6027 126.738 10.1863 126.187 9.97807C125.652 9.76987 125.109 9.66577 124.559 9.66577C123.741 9.66577 122.997 9.81448 122.328 10.1119C121.674 10.3945 121.109 10.796 120.633 11.3165C120.157 11.8221 119.785 12.417 119.517 13.1011C119.265 13.7852 119.138 14.5213 119.138 15.3095C119.138 16.1572 119.265 16.9379 119.517 17.6518C119.785 18.3656 120.157 18.9828 120.633 19.5033C121.109 20.0238 121.674 20.4327 122.328 20.7302C122.997 21.0276 123.741 21.1763 124.559 21.1763C125.198 21.1763 125.816 21.0276 126.41 20.7302C127.02 20.4179 127.585 19.9271 128.106 19.2579L130.426 20.9086C129.712 21.8902 128.842 22.604 127.816 23.0501C126.79 23.4963 125.697 23.7193 124.537 23.7193C123.317 23.7193 122.194 23.526 121.168 23.1394C120.157 22.7378 119.28 22.1801 118.536 21.4663C117.807 20.7376 117.235 19.8676 116.818 18.8564C116.402 17.8451 116.194 16.7223 116.194 15.488C116.194 14.2239 116.402 13.0788 116.818 12.0526C117.235 11.0116 117.807 10.1268 118.536 9.39808C119.28 8.66938 120.157 8.1117 121.168 7.72504C122.194 7.32351 123.317 7.12274 124.537 7.12274C125.607 7.12274 126.596 7.31607 127.503 7.70273C128.426 8.07452 129.281 8.71399 130.069 9.62115L127.883 11.2273Z" fill="white"/>
<path d="M133.651 7.52427H145.6V10.0673H136.461V13.9488H145.198V16.4918H136.461V20.7748H146.001V23.3178H133.651V7.52427Z" fill="white"/>
<path fill-rule="evenodd" clip-rule="evenodd" d="M0.935773 30.4215C9.28597 30.4215 16.0551 23.6523 16.0551 15.3021C16.0551 6.95191 9.28597 0.182739 0.935773 0.182739C-7.41442 0.182739 -14.1836 6.95191 -14.1836 15.3021C-14.1836 23.6523 -7.41442 30.4215 0.935773 30.4215ZM-9.03125 22.604C-9.03125 22.604 -4.99369 18.5664 -2.58834 14.443C-0.182983 10.3195 1.01969 5.33698 1.01969 5.33698C1.01969 5.33698 2.13647 10.1477 4.62772 14.443C7.11898 18.7382 10.9847 22.604 10.9847 22.604C10.9847 22.604 6.43174 20.8 1.01969 20.8C-4.39235 20.8 -9.03125 22.604 -9.03125 22.604Z" fill="white"/>
</svg>
