<svg width="63" height="39" viewBox="0 0 63 39" fill="none" xmlns="http://www.w3.org/2000/svg">
<path fill-rule="evenodd" clip-rule="evenodd" d="M3.55101 33.3335L5.3128 38.0245H6.2144L8.01113 33.2163H7.05416L5.79774 36.8375L4.52142 33.1668L3.55101 33.3335ZM11.917 33.2157V38.0024H14.768V37.2264H12.825V35.9087H14.3927L14.268 35.118H12.825V33.9929H14.6981V33.2157H11.917ZM21.7813 33.2157V36.3529L19.6308 33.2163H18.7631V38.003H19.6163V34.7082L21.8716 38.0035H22.635V33.2157H21.7813ZM26.5963 33.2157V34.0133H28.0177V38.0041H28.9403V34.0133H30.4456L30.3139 33.2163L26.5963 33.2157ZM38.1659 36.1297V33.2168H37.2428V36.1227C37.2428 36.8596 36.903 37.2898 36.2235 37.2898C35.5504 37.2898 35.2181 36.831 35.2181 36.1028V33.2168H34.302V36.1507C34.302 37.3995 35.0579 38.0869 36.217 38.0869C37.3751 38.0869 38.1654 37.3995 38.1654 36.1292L38.1659 36.1297ZM44.6174 35.9985C45.2066 35.7833 45.5744 35.3466 45.5744 34.6523C45.5744 33.7218 44.9292 33.2163 43.861 33.2163H42.3755V38.003H43.2927V36.1711H43.7088L44.9572 38.0519L45.8937 37.8787L44.6174 35.9985ZM44.6722 34.7007C44.6722 35.1998 44.3185 35.4698 43.7497 35.4698H43.2857V33.951H43.7911C44.3674 33.951 44.6728 34.2215 44.6728 34.7002L44.6722 34.7007ZM52.5941 38.0035V37.2264H50.6522V35.9087H52.2199L52.0952 35.117H50.6528V33.9929H52.5259V33.2168H49.7437V38.0035H52.5941ZM59.5031 36.6363C59.5031 35.8941 59.1429 35.5542 58.1575 35.1519C57.4919 34.8744 57.3392 34.7287 57.3392 34.4237C57.3392 34.1317 57.5408 33.9101 57.9983 33.9101C58.3725 33.9101 58.7817 34.0553 59.1284 34.2839L59.2671 33.4513C58.9204 33.2711 58.5467 33.1609 58.0048 33.1609C57.1102 33.1609 56.458 33.653 56.458 34.5001C56.458 35.2423 56.8322 35.5467 57.7618 35.9286C58.4553 36.2265 58.622 36.3723 58.622 36.7262C58.622 37.108 58.3306 37.3092 57.9069 37.3092C57.4285 37.3092 56.9295 37.122 56.5274 36.8859L56.3876 37.7249C56.858 37.9479 57.3725 38.0618 57.893 38.0584C58.8166 38.0584 59.5026 37.5727 59.5026 36.6358L59.5031 36.6363ZM0.591386 28.9894H10.1686V28.5162C8.19823 28.4769 7.52781 28.2015 7.52781 27.0188V12.1962H14.7013V27.0188C14.7013 28.2021 13.9917 28.4764 12.2578 28.5167V28.99H21.7173V28.5167C19.3131 28.4774 18.84 28.2021 18.84 27.0194V10.7365L13.4798 10.9731H7.52835V7.30726C7.52835 4.27173 8.00146 3.04923 8.82832 2.22151C9.53799 1.55137 10.524 1.1964 11.825 1.1964C13.4798 1.1964 14.7411 2.02466 15.2148 2.93145C14.5438 3.40474 14.0712 4.23193 14.0712 5.02093C14.0712 6.7151 15.2927 7.38632 16.554 7.38632C17.9341 7.38632 18.8803 6.36121 18.8803 4.90261C18.8803 2.89111 16.8696 0.487 11.7853 0.487C9.18423 0.487 7.05578 1.15714 5.51871 2.6948C4.13863 4.11468 3.38972 6.16382 3.38972 9.51452V10.8548L0 11.7223V12.2354H3.38972V27.0183C3.38972 28.2015 2.83758 28.4758 0.590849 28.5162V28.9894H0.591386ZM30.1473 21.6566L31.9214 19.8829L36.2955 26.2293C37.2417 27.6094 37.1235 28.3193 35.0751 28.5167V28.99H44.4158V28.5167C42.6024 28.3198 42.2083 28.0047 40.5137 25.6L34.6015 17.2416L36.7305 15.1128C39.2519 12.6678 40.6713 11.761 42.9572 11.2888V10.8155H34.6015V11.2888C37.3595 11.8008 37.6358 12.9437 35.9412 14.7181L30.1473 20.6719V0.723646L22.8555 0.959217V1.43251C25.6146 1.51157 26.0092 2.10265 26.0092 3.44293V27.0183C26.0092 28.2015 25.4963 28.4758 23.2103 28.5162V28.9894H32.237V28.5162C30.6994 28.4769 30.1473 28.2015 30.1473 27.0188V21.6566ZM52.1049 27.4125C50.0942 27.4125 49.1888 26.0722 49.1888 24.1801C49.1888 21.4991 50.3318 20.3562 55.5737 19.3305V25.2053C54.7844 26.3094 53.5232 27.4131 52.1044 27.4131L52.1049 27.4125ZM49.8184 29.2266C52.2619 29.2266 54.1151 27.8471 55.6124 26.1126H55.7699C56.0064 28.2413 56.8344 29.1481 59.0413 29.1481C60.4209 29.1481 61.4456 28.6748 62.8251 27.8073L62.6676 27.4136C60.3816 28.3602 59.672 27.5319 59.672 25.6011V16.4149C59.672 12.3543 57.3064 10.6198 52.8538 10.6198C48.4001 10.6198 45.5233 12.315 45.5233 14.6411C45.5233 15.9427 46.4292 16.9673 47.8093 16.9673C49.3469 16.9673 50.1748 16.0207 50.1748 14.6411C50.1748 13.8521 49.7797 13.1427 49.1103 12.5113C49.8189 11.8025 51.0404 11.369 52.3807 11.369C54.7065 11.369 55.5742 12.7878 55.5742 15.7448V18.5829C54.6667 19.0159 50.0555 19.2525 47.1389 20.8687C45.4841 21.7755 44.7744 23.3132 44.7744 24.8508C44.7744 27.0586 46.3109 29.2266 49.8189 29.2266" fill="white"/>
</svg>
