<svg width="105" height="36" viewBox="0 0 105 36" fill="none" xmlns="http://www.w3.org/2000/svg">
<path fill-rule="evenodd" clip-rule="evenodd" d="M14.4938 0.56684C11.3221 0.956648 7.83159 2.58675 4.85488 5.10278C4.25245 5.5989 2.99443 6.82148 2.99443 6.89235C2.99443 6.92779 3.59686 7.56566 4.34104 8.30984L5.68765 9.67416L5.12066 10.312C3.02987 12.6686 1.61239 15.0606 0.761896 17.5943C0.23034 19.189 0 20.5002 0 21.9708C0 23.2997 0.177184 24.3805 0.584711 25.4259L0.744178 25.8512L4.69541 29.8024C7.99106 33.0981 8.73524 33.8068 9.14276 34.0726C9.99325 34.6396 10.9855 35.0294 12.084 35.2597C12.8105 35.4192 14.4938 35.4723 15.2911 35.366C18.445 34.9762 21.7052 33.4879 24.5579 31.1136C25.3021 30.4934 26.5601 29.3063 26.5601 29.2354C26.5601 29.2 25.9399 28.5621 25.1958 27.8002L23.8314 26.4182L24.2567 25.9752C25.3021 24.8767 26.5778 23.1225 27.322 21.7405C28.3851 19.8092 29.0761 17.7184 29.3064 15.8048C29.395 14.972 29.3419 13.2002 29.2001 12.5268C28.9521 11.3929 28.5623 10.4715 27.9776 9.58557C27.6763 9.12489 27.0739 8.50474 23.7428 5.15594L19.8448 1.25786L19.4372 1.0984C18.888 0.868055 17.754 0.602278 17.0629 0.531404C16.3719 0.460529 15.2911 0.478247 14.4938 0.56684ZM17.8426 1.61223C18.1261 1.68311 18.5867 1.78942 18.8348 1.87801C19.2955 2.03748 19.3132 2.03748 20.0397 2.76394C20.6775 3.40181 20.7661 3.4904 20.6066 3.47268C19.7562 3.31321 18.3918 3.27778 17.3287 3.41952C13.9268 3.84477 10.4185 5.56346 7.19372 8.39843C6.87479 8.68193 6.59129 8.92999 6.53814 8.96542C6.48498 9.00086 6.20148 8.77052 5.36871 7.93775L4.27017 6.8392L4.97891 6.21905C7.9379 3.63215 11.1981 2.00204 14.3874 1.54136C15.2379 1.41733 17.1338 1.47049 17.8426 1.61223ZM22.4848 7.24672C24.044 7.47707 25.4084 8.15037 26.4183 9.16033C27.4106 10.1526 28.0484 11.4283 28.3496 13.023C28.4737 13.7317 28.4737 15.3264 28.3496 16.1591C27.9421 18.7283 26.755 21.3684 24.9123 23.7781C24.487 24.3451 23.4771 25.5322 23.3176 25.6563C23.229 25.7271 23.1227 25.6386 22.2013 24.7172C21.6343 24.1502 21.1736 23.6718 21.1736 23.6541C21.1736 23.6364 21.3331 23.4415 21.528 23.2288C24.7351 19.6851 26.2411 15.2555 25.178 12.5091C24.7528 11.446 23.8669 10.6487 22.7152 10.2943C22.1304 10.1171 21.1028 10.0285 20.3409 10.1171C19.1714 10.2234 17.7362 10.6841 16.3542 11.3574C14.9722 12.0307 13.7141 12.8812 12.4916 13.9798L11.9423 14.4582L10.8969 13.4128L9.8515 12.3674L10.2945 11.9599C13.0054 9.4261 16.6023 7.61881 19.6853 7.21129C20.3054 7.15813 21.9001 7.15813 22.4848 7.24672ZM7.83159 13.3596C7.44178 13.8026 6.94566 14.4227 6.6976 14.7417C3.75633 18.6575 2.40972 22.9099 2.95899 26.5776L2.99443 26.808L2.26797 26.0992C1.57695 25.4259 1.54151 25.3728 1.39976 24.9475C0.0177188 20.9786 1.75413 15.5036 5.84711 10.9145L6.32552 10.3829L7.42406 11.4815L8.52261 12.58L7.83159 13.3596ZM21.6698 11.0916L21.8115 11.1271L21.7761 11.8713C21.7406 12.7572 21.6166 13.4836 21.4394 14.1038C20.8724 15.9642 19.827 17.8247 18.3032 19.5788L17.7185 20.2521L16.6023 19.1359L15.486 18.0196L15.9998 17.4526C17.0984 16.2477 18.1083 14.848 18.7285 13.6608C19.0651 13.023 19.5081 11.9421 19.6321 11.446C19.703 11.1448 19.703 11.1448 19.9688 11.1094C20.1105 11.0916 20.27 11.0739 20.3232 11.0562C20.4649 11.0562 21.5457 11.0562 21.6698 11.0916ZM18.4981 11.8713C18.2501 12.5623 17.7008 13.6254 17.1693 14.4227C16.5845 15.3087 16.177 15.8402 15.362 16.7616L14.795 17.4172L13.6787 16.3009L12.5624 15.1846L12.9345 14.848C14.0862 13.8203 15.4328 12.8989 16.6731 12.2611C17.3464 11.9244 18.445 11.4815 18.6045 11.4637C18.6222 11.4637 18.5867 11.6409 18.4981 11.8713ZM35.4725 12.5446C35.4193 12.5977 35.4016 14.0684 35.4016 19.4548C35.4016 26.0106 35.4016 26.2941 35.5079 26.3827C35.5965 26.4713 35.88 26.4713 38.272 26.4713C39.7249 26.4713 41.3019 26.4359 41.7626 26.4182C43.623 26.2941 45.0582 25.6917 46.1568 24.5932C47.025 23.725 47.5743 22.5201 47.8577 20.9254C47.9818 20.1458 47.9818 18.5157 47.8577 17.7538C47.3971 15.1846 45.9264 13.5191 43.5699 12.8458C42.4182 12.5268 42.3296 12.5091 38.8213 12.4914C36.2167 12.4914 35.5257 12.4914 35.4725 12.5446ZM99.9857 12.7749C99.9325 12.8281 99.9148 13.271 99.9148 14.405V15.9642H99.2415C98.7985 15.9642 98.5505 15.982 98.4973 16.0351C98.4087 16.1237 98.4087 17.9664 98.4973 18.0727C98.5505 18.1259 98.7985 18.1436 99.2415 18.1436H99.9148L99.9325 21.2975C99.9502 24.3805 99.9502 24.4691 100.074 24.8235C100.411 25.798 101.102 26.3296 102.218 26.4713C102.98 26.5599 104.061 26.5245 104.805 26.3827L104.965 26.3473L104.947 25.0538L104.929 23.7604L104.22 23.725C103.458 23.6895 103.334 23.6541 103.246 23.4946C103.21 23.4237 103.193 22.3606 103.193 20.7837V18.1791L104.096 18.1613L105 18.1436V17.0628V15.982L104.096 15.9642L103.193 15.9465V14.4227C103.193 13.4836 103.175 12.8635 103.14 12.7926C103.086 12.6863 102.998 12.6863 101.58 12.6863C100.464 12.7218 100.039 12.7395 99.9857 12.7749ZM41.9929 15.7693C43.0737 16.0528 43.7825 16.8147 44.066 17.931C44.2786 18.7815 44.2786 20.199 44.0483 21.0849C43.8179 21.9531 43.2864 22.6441 42.5776 22.9808C41.9575 23.282 41.5854 23.3351 40.3097 23.3706L39.158 23.406V19.5079V15.6099L40.3982 15.6453C41.3019 15.663 41.7449 15.6985 41.9929 15.7693ZM52.8189 15.8402C51.0471 16.1591 49.6828 17.3286 49.0803 19.0295C48.283 21.2621 48.6728 23.8136 50.0194 25.2488C50.7282 25.9929 51.4015 26.3827 52.4291 26.6485C54.3959 27.1446 56.5044 26.6308 57.9042 25.3196C58.2408 25.0184 59.109 23.9199 59.109 23.8135C59.109 23.6895 58.861 23.5301 57.851 23.0162C57.2309 22.6973 56.717 22.4315 56.6993 22.4315C56.6816 22.4315 56.5753 22.591 56.469 22.7859C56.2209 23.2643 55.7071 23.7958 55.335 23.9907C54.2187 24.54 52.9075 24.2211 52.3405 23.2643C52.1811 22.9808 52.0216 22.4847 52.0216 22.2189V22.024H55.5653C58.2408 22.024 59.109 22.0063 59.1622 21.9531C59.2508 21.8645 59.2508 21.1558 59.1445 20.447C58.861 18.5511 58.0636 17.1868 56.7879 16.4249C56.3626 16.1769 55.5476 15.8934 55.016 15.8048C54.4845 15.7162 53.3505 15.7339 52.8189 15.8402ZM64.46 15.7693C63.9639 15.8402 63.5564 15.9288 63.2374 16.0351C61.4479 16.6021 60.2607 18.0727 59.8886 20.1635C59.7469 20.9609 59.8 22.2366 59.9949 22.9985C60.2607 24.0262 60.6505 24.6995 61.3593 25.3728C61.9794 25.9575 62.7059 26.365 63.6804 26.6308C63.9639 26.7194 64.2474 26.7371 64.9739 26.7371C65.8066 26.7371 65.9306 26.7194 66.3913 26.5776C67.3127 26.2941 68.0214 25.8689 68.6593 25.1956C69.0845 24.7526 69.563 24.097 69.563 23.9553C69.563 23.9021 69.4744 23.8136 69.3858 23.7427C69.0137 23.5123 67.295 22.6618 67.2064 22.6618C67.1532 22.6618 67.0646 22.7859 66.976 22.9631C66.7634 23.4237 66.4799 23.725 66.037 23.9376C65.7003 24.097 65.594 24.1325 65.2219 24.1148C64.7258 24.1148 64.4069 23.9907 63.9993 23.6364C62.9362 22.6973 62.8653 20.0927 63.8753 18.9055C64.5132 18.1613 65.7003 18.1613 66.4622 18.8878C66.5862 19.0118 66.7634 19.2422 66.852 19.4016C66.9406 19.5611 67.0469 19.7029 67.1001 19.7029C67.2241 19.7383 69.4035 18.4803 69.4389 18.3562C69.4566 18.2499 69.2263 17.8956 68.8896 17.4703C68.3404 16.797 67.2595 16.1414 66.3205 15.9288C65.8421 15.8048 64.8144 15.7339 64.46 15.7693ZM92.8805 15.8934C92.2958 15.9997 91.7643 16.2123 91.339 16.5312L91.0024 16.7793L90.9846 16.4249L90.9669 16.0706L89.6026 16.0528C88.3977 16.0351 88.2206 16.0528 88.132 16.1414C88.0257 16.23 88.0257 16.4958 88.0257 23.0517C88.0257 28.2786 88.0434 29.8733 88.0965 29.9264C88.2028 30.0328 91.1796 30.0328 91.2681 29.9264C91.3213 29.8733 91.339 29.3417 91.339 27.9065V25.9575L91.8883 26.241C92.6325 26.6131 93.0932 26.7017 93.9614 26.6662C94.9713 26.6131 95.5737 26.4182 96.2293 25.9221C97.1507 25.231 97.7531 24.1679 98.0898 22.6973C98.267 21.9177 98.267 20.5533 98.0898 19.7206C97.8594 18.622 97.4873 17.8778 96.814 17.1691C95.8218 16.0706 94.3689 15.6276 92.8805 15.8934ZM12.97 16.9388C13.9268 17.8956 13.9799 17.9664 13.909 18.0727C13.8559 18.1259 13.6255 18.3917 13.3775 18.6752C12.3853 19.8092 11.4639 21.1912 10.8437 22.4669C10.4008 23.3706 10.135 24.1148 9.86922 25.1247C9.53257 26.4536 9.53257 27.9242 9.90466 28.9519C10.5957 30.901 12.4207 31.8223 14.9722 31.5211C17.435 31.2199 20.27 29.8024 22.6974 27.6585L23.2113 27.1978L24.2567 28.2432L25.3021 29.2886L24.8591 29.6961C22.5911 31.8046 19.5613 33.5233 16.9389 34.1612C15.8758 34.4269 15.1316 34.5155 14.1217 34.5155C12.7751 34.5155 11.7828 34.3384 10.7374 33.8777C9.39082 33.293 8.15052 32.1413 7.51266 30.8655C6.71532 29.2886 6.48498 27.3395 6.83935 25.231C7.33547 22.2898 8.98329 19.1359 11.4107 16.4249C11.6588 16.1414 11.8891 15.9111 11.9069 15.9111C11.9246 15.9111 12.403 16.3718 12.97 16.9388ZM76.0125 15.982C75.3215 16.0883 74.4533 16.4072 73.8863 16.7793L73.7091 16.9033V16.5312C73.7091 16.3186 73.6736 16.1414 73.6382 16.0883C73.5851 16.0351 73.1775 16.0174 72.1321 16.0174C70.821 16.0174 70.6792 16.0174 70.6083 16.1237C70.5197 16.2123 70.5197 16.6553 70.5197 21.2621C70.5197 26.0638 70.5198 26.2941 70.6261 26.3827C70.7147 26.4713 70.9096 26.4713 72.1853 26.4713C73.3193 26.4713 73.6559 26.4536 73.7091 26.4005C73.7445 26.3473 73.78 25.3019 73.78 23.158C73.7977 20.1813 73.7977 19.9686 73.904 19.7737C74.1166 19.3485 74.4887 19.1713 75.5695 18.9941C75.9771 18.9232 76.3846 18.8524 76.4732 18.8346L76.6326 18.7992V17.4172C76.6326 16.0351 76.6149 15.8756 76.4377 15.9111C76.3669 15.9288 76.1897 15.9465 76.0125 15.982ZM77.4654 16.106C77.43 16.1591 77.4123 16.2477 77.43 16.3363C77.4477 16.4072 77.9261 17.9664 78.4931 19.7737C80.7611 27.0738 80.637 26.6485 80.4776 26.932C80.3358 27.2155 80.0878 27.2687 79.2018 27.2687C78.6526 27.2687 78.3691 27.2864 78.3336 27.3395C78.2805 27.3927 78.2627 27.7471 78.2627 28.6153C78.2627 29.4835 78.2805 29.8379 78.3336 29.891C78.4222 29.9796 80.6725 29.9796 81.2572 29.9087C82.2317 29.767 83.029 29.076 83.4897 27.9774C83.596 27.7471 84.4997 25.0007 85.5096 21.8822C87.0511 17.1691 87.3524 16.1946 87.2815 16.1237C87.2283 16.0528 86.9625 16.0351 85.5628 16.0351H83.915L83.8618 16.2832C83.8264 16.4249 83.4897 17.8956 83.0999 19.5788C82.7101 21.2621 82.3912 22.6618 82.3557 22.6796C82.338 22.6973 81.9659 21.2089 81.5584 19.3839L80.7965 16.0351H79.1487C77.7843 16.0351 77.5186 16.0351 77.4654 16.106ZM54.8388 18.3208C55.3704 18.5689 55.7248 19.0473 55.8311 19.632L55.8665 19.8446H53.9706H52.0748L52.1102 19.6674C52.1811 19.3485 52.4823 18.8346 52.7303 18.622C53.1556 18.2499 53.5277 18.1259 54.1124 18.1613C54.3959 18.1791 54.6085 18.2322 54.8388 18.3208ZM93.9436 18.4094C94.4398 18.6752 94.8119 19.2245 94.989 19.9686C95.1131 20.5179 95.1131 21.8291 94.9713 22.3783C94.8473 22.8567 94.5992 23.3529 94.3334 23.6895C93.9082 24.2034 93.0754 24.3451 92.4021 24.0085C91.6225 23.6186 91.2504 22.7504 91.2504 21.2975C91.2504 19.9509 91.6048 18.9941 92.2604 18.5157C92.7742 18.1613 93.3944 18.1259 93.9436 18.4094ZM16.4428 21.2798C14.9899 22.6441 13.1294 23.8667 11.5879 24.4869C11.269 24.6109 10.9855 24.7172 10.9678 24.7172C10.9501 24.7172 11.0209 24.5223 11.1095 24.2742C11.7828 22.4138 12.9522 20.5179 14.352 19.0118L14.6887 18.6575L15.8049 19.756L16.9212 20.8546L16.4428 21.2798ZM18.6753 22.6618L19.7562 23.7427L19.4195 24.0616C17.6477 25.7271 14.919 27.2332 12.9877 27.6408C12.5093 27.7471 11.4462 27.8534 10.9323 27.8534H10.5957V27.0383C10.5957 26.5954 10.6134 26.117 10.6311 26.0106L10.6666 25.798L11.3576 25.5677C13.1117 25.0007 15.3442 23.6009 16.9921 22.0417C17.2578 21.7936 17.5059 21.581 17.5413 21.581C17.5768 21.581 18.0906 22.0594 18.6753 22.6618Z" fill="#1D1D1B"/>
</svg>
