<svg aria-hidden="true" style="position: absolute; width: 0; height: 0; overflow: hidden;" version="1.1" xmlns="http://www.w3.org/2000/svg" xmlns:xlink="http://www.w3.org/1999/xlink">
<defs>
<symbol id="icon-ens" viewBox="0 0 32 32">
<path d="M5.199 13.179c0.32 0.657 1.113 1.956 1.113 1.956l9.165-14.543-8.945 5.995c-0.533 0.341-0.97 0.803-1.273 1.345-0.407 0.818-0.624 1.711-0.634 2.617s0.186 1.804 0.574 2.629z"></path>
<path d="M1.567 17.968c0.101 1.391 0.51 2.745 1.201 3.972s1.646 2.298 2.803 3.142l9.894 6.622c0 0-6.19-8.563-11.411-17.083-0.529-0.9-0.884-1.884-1.049-2.906-0.073-0.462-0.073-0.933 0-1.395-0.136 0.242-0.4 0.738-0.4 0.738-0.529 1.036-0.89 2.145-1.069 3.286-0.103 1.207-0.092 2.42 0.032 3.624z"></path>
<path d="M26.809 19.117c-0.32-0.657-1.113-1.956-1.113-1.956l-9.165 14.543 8.945-5.992c0.533-0.341 0.97-0.803 1.273-1.345 0.408-0.818 0.625-1.712 0.635-2.619s-0.186-1.805-0.575-2.631z"></path>
<path d="M30.44 14.328c-0.101-1.391-0.511-2.745-1.201-3.972s-1.646-2.298-2.803-3.142l-9.894-6.622c0 0 6.186 8.563 11.411 17.083 0.527 0.9 0.881 1.885 1.045 2.906 0.073 0.462 0.073 0.933 0 1.395 0.136-0.242 0.4-0.738 0.4-0.738 0.529-1.036 0.89-2.145 1.069-3.286 0.104-1.206 0.095-2.419-0.028-3.624z"></path>
<path d="M5.259 7.933c0.303-0.542 0.74-1.004 1.273-1.345l8.945-5.995-9.165 14.547c0 0-0.801-1.299-1.113-1.956-0.389-0.826-0.585-1.724-0.575-2.631s0.227-1.801 0.635-2.619zM1.567 17.968c0.101 1.391 0.51 2.745 1.201 3.972s1.646 2.298 2.803 3.142l9.894 6.622c0 0-6.19-8.563-11.411-17.083-0.529-0.9-0.884-1.884-1.049-2.906-0.073-0.462-0.073-0.933 0-1.395-0.136 0.242-0.4 0.738-0.4 0.738-0.529 1.036-0.89 2.145-1.069 3.286-0.103 1.207-0.092 2.42 0.032 3.624zM26.793 19.121c-0.32-0.657-1.113-1.956-1.113-1.956l-9.149 14.539 8.945-5.992c0.533-0.341 0.97-0.803 1.273-1.345 0.408-0.818 0.625-1.712 0.635-2.619s-0.186-1.805-0.575-2.631l-0.016 0.004zM30.424 14.332c-0.101-1.391-0.511-2.745-1.201-3.972s-1.646-2.298-2.803-3.142l-9.878-6.626c0 0 6.186 8.563 11.411 17.083 0.527 0.9 0.881 1.885 1.045 2.906 0.073 0.462 0.073 0.933 0 1.395 0.136-0.242 0.4-0.738 0.4-0.738 0.529-1.036 0.89-2.145 1.069-3.286 0.104-1.206 0.095-2.419-0.028-3.624l-0.016 0.004z"></path>
</symbol>
<symbol id="icon-Path" viewBox="0 0 32 32">
<path d="M28.512 13.99c-0.125-0.335-0.445-0.557-0.802-0.557h-10.331l5.959-11.586c0.187-0.364 0.091-0.81-0.232-1.063-0.156-0.123-0.343-0.184-0.53-0.184-0.199 0-0.399 0.070-0.559 0.208l-18.822 16.256c-0.27 0.234-0.368 0.611-0.243 0.945s0.444 0.558 0.802 0.558h10.331l-5.959 11.586c-0.187 0.364-0.091 0.81 0.232 1.064 0.156 0.123 0.343 0.184 0.53 0.184 0.199 0 0.399-0.070 0.559-0.208l18.822-16.256c0.271-0.234 0.368-0.611 0.244-0.946z"></path>
</symbol>
<symbol id="icon-gnosis" viewBox="0 0 32 32">
<path fill="#008c73" style="fill: var(--color1, #008c73)" d="M16 0c-8.821 0-16 7.151-16 16 0 8.821 7.151 16 16 16s16-7.151 16-16c0-8.821-7.179-16-16-16zM27.715 16.863h-7.43c-0.501 2.449-2.866 4.035-5.315 3.534s-4.035-2.866-3.534-5.315c0.501-2.449 2.866-4.035 5.315-3.534 1.864 0.362 3.284 1.864 3.59 3.756h7.374c0.445 0 0.779 0.362 0.779 0.779 0 0.445-0.362 0.779-0.779 0.779z"></path>
</symbol>
<symbol id="icon-Group-5601" viewBox="0 0 32 32">
<path fill="#c8d316" style="fill: var(--color2, #c8d316)" d="M8.955 3.958c-0.028-0.266-0.252-0.468-0.519-0.468s-0.491 0.202-0.519 0.468l-0.412 3.97c-0.168 1.62-1.448 2.9-3.068 3.068l-3.97 0.412c-0.266 0.028-0.468 0.252-0.468 0.519s0.202 0.491 0.468 0.519l3.97 0.412c1.62 0.168 2.9 1.448 3.068 3.068l0.412 3.97c0.028 0.266 0.252 0.468 0.519 0.468s0.491-0.202 0.519-0.468l0.412-3.97c0.168-1.62 1.448-2.9 3.068-3.068l3.97-0.412c0.266-0.028 0.468-0.252 0.468-0.519s-0.202-0.491-0.468-0.519l-3.97-0.412c-1.62-0.168-2.9-1.448-3.068-3.068l-0.412-3.97z"></path>
<path fill="#a36ffe" style="fill: var(--color3, #a36ffe)" d="M27.905 20.024c-0.014-0.137-0.13-0.242-0.268-0.242s-0.254 0.104-0.268 0.242l-0.213 2.054c-0.087 0.838-0.749 1.5-1.587 1.587l-2.054 0.213c-0.137 0.014-0.242 0.13-0.242 0.268s0.104 0.254 0.242 0.268l2.054 0.213c0.838 0.087 1.5 0.749 1.587 1.587l0.213 2.054c0.014 0.137 0.13 0.242 0.268 0.242s0.254-0.104 0.268-0.242l0.213-2.054c0.087-0.838 0.749-1.5 1.587-1.587l2.054-0.213c0.137-0.014 0.242-0.13 0.242-0.268s-0.104-0.254-0.242-0.268l-2.054-0.213c-0.838-0.087-1.5-0.749-1.587-1.587l-0.213-2.054z"></path>
</symbol>
<symbol id="icon-Group-5604" viewBox="0 0 32 32">
<path fill="#4be1f4" style="fill: var(--color4, #4be1f4)" d="M16.062 0.501c-0.022-0.212-0.201-0.373-0.414-0.373s-0.392 0.161-0.414 0.373l-0.329 3.168c-0.134 1.292-1.156 2.314-2.448 2.448l-3.168 0.329c-0.212 0.022-0.373 0.201-0.373 0.414s0.161 0.392 0.373 0.414l3.168 0.329c1.292 0.134 2.314 1.156 2.448 2.448l0.329 3.168c0.022 0.212 0.201 0.373 0.414 0.373s0.392-0.161 0.414-0.373l0.329-3.168c0.134-1.292 1.156-2.314 2.448-2.448l3.168-0.329c0.212-0.022 0.373-0.201 0.373-0.414s-0.161-0.392-0.373-0.414l-3.168-0.329c-1.292-0.134-2.314-1.156-2.448-2.448l-0.329-3.168z"></path>
<path fill="#f87388" style="fill: var(--color5, #f87388)" d="M28.429 25.179c-0.011-0.106-0.1-0.186-0.207-0.186s-0.196 0.081-0.207 0.186l-0.164 1.584c-0.067 0.646-0.578 1.157-1.224 1.224l-1.584 0.164c-0.106 0.011-0.186 0.1-0.186 0.207s0.081 0.196 0.186 0.207l1.584 0.164c0.646 0.067 1.157 0.578 1.224 1.224l0.164 1.584c0.011 0.106 0.1 0.187 0.207 0.187s0.196-0.081 0.207-0.187l0.164-1.584c0.067-0.646 0.578-1.157 1.224-1.224l1.584-0.164c0.106-0.011 0.187-0.1 0.187-0.207s-0.081-0.196-0.187-0.207l-1.584-0.164c-0.646-0.067-1.157-0.578-1.224-1.224l-0.164-1.584z"></path>
<path fill="#c8d316" style="fill: var(--color2, #c8d316)" d="M3.983 19.51c-0.011-0.106-0.1-0.187-0.207-0.187s-0.196 0.081-0.207 0.187l-0.164 1.584c-0.067 0.646-0.578 1.157-1.224 1.224l-1.584 0.164c-0.106 0.011-0.187 0.1-0.187 0.207s0.081 0.196 0.187 0.207l1.584 0.164c0.646 0.067 1.157 0.578 1.224 1.224l0.164 1.584c0.011 0.106 0.1 0.186 0.207 0.186s0.196-0.081 0.207-0.186l0.164-1.584c0.067-0.646 0.578-1.157 1.224-1.224l1.584-0.164c0.106-0.011 0.187-0.1 0.187-0.207s-0.081-0.196-0.187-0.207l-1.584-0.164c-0.646-0.067-1.157-0.578-1.224-1.224l-0.164-1.584z"></path>
</symbol>
<symbol id="icon-logo" viewBox="0 0 53 32">
<path d="M37.968 7.22798L40.9274 19.5828C41.2518 20.937 40.2253 22.2384 38.8328 22.2384H12.1425C9.59998 22.2384 7.32802 20.6507 6.45401 18.2631L6.21159 17.6009C6.08297 17.2496 6.34306 16.8773 6.71726 16.8773H24.1481C24.3545 16.8773 24.5218 16.71 24.5218 16.5036C24.5218 14.9555 23.2668 13.7004 21.7187 13.7004H9.01701C6.47448 13.7004 4.20254 12.1127 3.32852 9.72514L3.11033 9.1291C2.9817 8.77777 3.24181 8.40559 3.61597 8.40559H20.177C20.3833 8.40559 20.5507 8.23824 20.5507 8.0318C20.5507 6.48367 19.2957 5.22866 17.7475 5.22866H5.91572C3.37322 5.22866 1.10126 3.64097 0.227246 1.2534L0.0332865 0.72357C-0.0953355 0.37218 0.164768 0 0.538929 0H28.8042C33.1628 0 36.9527 2.98926 37.968 7.22798Z" fill="url(#paint0_linear_1_2453)"/>
<path d="M48.4482 10.9056L52.5984 28.73C52.9131 30.0807 51.8876 31.3722 50.5008 31.3722H22.6625C20.0259 31.3722 17.6921 29.6667 16.8911 27.1547L16.6091 26.27C16.443 25.749 16.8317 25.2169 17.3786 25.2169H42.7988C44.1934 25.2169 45.2203 23.9118 44.8921 22.5563L41.1791 7.21945C41.056 6.71113 41.4411 6.22168 41.9641 6.22168H42.5483C45.3646 6.22168 47.8095 8.16262 48.4482 10.9056Z" fill="url(#paint1_linear_1_2453)"/>
<defs>
<linearGradient id="paint0_linear_1_2453" x1="20.4845" y1="0" x2="20.4845" y2="22.2384" gradientUnits="userSpaceOnUse">
<stop stop-color="#FFC803"/>
<stop offset="1" stop-color="#FFA903"/>
</linearGradient>
<linearGradient id="paint1_linear_1_2453" x1="34.5621" y1="6.22168" x2="34.5621" y2="31.3722" gradientUnits="userSpaceOnUse">
<stop stop-color="#FF7421"/>
<stop offset="1" stop-color="#EC5901"/>
</linearGradient>
</defs>
</symbol>
<symbol id="icon-btn" viewBox="0 0 13 12">
<path d="M6.5 1L6.97023 5.52977L11.5 6L6.97023 6.47023L6.5 11L6.02977 6.47023L1.5 6L6.02977 5.52977L6.5 1Z" stroke="#505F6D" stroke-width="1.35356" stroke-linejoin="round"/>

</symbol>
</defs>
</svg>
