<svg aria-hidden="true" style="position: absolute; width: 0; height: 0; overflow: hidden;" version="1.1" xmlns="http://www.w3.org/2000/svg" xmlns:xlink="http://www.w3.org/1999/xlink">
<defs>
<symbol id="icon-ens" viewBox="0 0 32 32">
<path d="M5.199 13.179c0.32 0.657 1.113 1.956 1.113 1.956l9.165-14.543-8.945 5.995c-0.533 0.341-0.97 0.803-1.273 1.345-0.407 0.818-0.624 1.711-0.634 2.617s0.186 1.804 0.574 2.629z"></path>
<path d="M1.567 17.968c0.101 1.391 0.51 2.745 1.201 3.972s1.646 2.298 2.803 3.142l9.894 6.622c0 0-6.19-8.563-11.411-17.083-0.529-0.9-0.884-1.884-1.049-2.906-0.073-0.462-0.073-0.933 0-1.395-0.136 0.242-0.4 0.738-0.4 0.738-0.529 1.036-0.89 2.145-1.069 3.286-0.103 1.207-0.092 2.42 0.032 3.624z"></path>
<path d="M26.809 19.117c-0.32-0.657-1.113-1.956-1.113-1.956l-9.165 14.543 8.945-5.992c0.533-0.341 0.97-0.803 1.273-1.345 0.408-0.818 0.625-1.712 0.635-2.619s-0.186-1.805-0.575-2.631z"></path>
<path d="M30.44 14.328c-0.101-1.391-0.511-2.745-1.201-3.972s-1.646-2.298-2.803-3.142l-9.894-6.622c0 0 6.186 8.563 11.411 17.083 0.527 0.9 0.881 1.885 1.045 2.906 0.073 0.462 0.073 0.933 0 1.395 0.136-0.242 0.4-0.738 0.4-0.738 0.529-1.036 0.89-2.145 1.069-3.286 0.104-1.206 0.095-2.419-0.028-3.624z"></path>
<path d="M5.259 7.933c0.303-0.542 0.74-1.004 1.273-1.345l8.945-5.995-9.165 14.547c0 0-0.801-1.299-1.113-1.956-0.389-0.826-0.585-1.724-0.575-2.631s0.227-1.801 0.635-2.619zM1.567 17.968c0.101 1.391 0.51 2.745 1.201 3.972s1.646 2.298 2.803 3.142l9.894 6.622c0 0-6.19-8.563-11.411-17.083-0.529-0.9-0.884-1.884-1.049-2.906-0.073-0.462-0.073-0.933 0-1.395-0.136 0.242-0.4 0.738-0.4 0.738-0.529 1.036-0.89 2.145-1.069 3.286-0.103 1.207-0.092 2.42 0.032 3.624zM26.793 19.121c-0.32-0.657-1.113-1.956-1.113-1.956l-9.149 14.539 8.945-5.992c0.533-0.341 0.97-0.803 1.273-1.345 0.408-0.818 0.625-1.712 0.635-2.619s-0.186-1.805-0.575-2.631l-0.016 0.004zM30.424 14.332c-0.101-1.391-0.511-2.745-1.201-3.972s-1.646-2.298-2.803-3.142l-9.878-6.626c0 0 6.186 8.563 11.411 17.083 0.527 0.9 0.881 1.885 1.045 2.906 0.073 0.462 0.073 0.933 0 1.395 0.136-0.242 0.4-0.738 0.4-0.738 0.529-1.036 0.89-2.145 1.069-3.286 0.104-1.206 0.095-2.419-0.028-3.624l-0.016 0.004z"></path>
</symbol>
<symbol id="icon-Path" viewBox="0 0 32 32">
<path d="M28.512 13.99c-0.125-0.335-0.445-0.557-0.802-0.557h-10.331l5.959-11.586c0.187-0.364 0.091-0.81-0.232-1.063-0.156-0.123-0.343-0.184-0.53-0.184-0.199 0-0.399 0.070-0.559 0.208l-18.822 16.256c-0.27 0.234-0.368 0.611-0.243 0.945s0.444 0.558 0.802 0.558h10.331l-5.959 11.586c-0.187 0.364-0.091 0.81 0.232 1.064 0.156 0.123 0.343 0.184 0.53 0.184 0.199 0 0.399-0.070 0.559-0.208l18.822-16.256c0.271-0.234 0.368-0.611 0.244-0.946z"></path>
</symbol>
<symbol id="icon-gnosis" viewBox="0 0 32 32">
<path fill="#008c73" style="fill: var(--color1, #008c73)" d="M16 0c-8.821 0-16 7.151-16 16 0 8.821 7.151 16 16 16s16-7.151 16-16c0-8.821-7.179-16-16-16zM27.715 16.863h-7.43c-0.501 2.449-2.866 4.035-5.315 3.534s-4.035-2.866-3.534-5.315c0.501-2.449 2.866-4.035 5.315-3.534 1.864 0.362 3.284 1.864 3.59 3.756h7.374c0.445 0 0.779 0.362 0.779 0.779 0 0.445-0.362 0.779-0.779 0.779z"></path>
</symbol>
<symbol id="icon-Group-5601" viewBox="0 0 32 32">
<path fill="#c8d316" style="fill: var(--color2, #c8d316)" d="M8.955 3.958c-0.028-0.266-0.252-0.468-0.519-0.468s-0.491 0.202-0.519 0.468l-0.412 3.97c-0.168 1.62-1.448 2.9-3.068 3.068l-3.97 0.412c-0.266 0.028-0.468 0.252-0.468 0.519s0.202 0.491 0.468 0.519l3.97 0.412c1.62 0.168 2.9 1.448 3.068 3.068l0.412 3.97c0.028 0.266 0.252 0.468 0.519 0.468s0.491-0.202 0.519-0.468l0.412-3.97c0.168-1.62 1.448-2.9 3.068-3.068l3.97-0.412c0.266-0.028 0.468-0.252 0.468-0.519s-0.202-0.491-0.468-0.519l-3.97-0.412c-1.62-0.168-2.9-1.448-3.068-3.068l-0.412-3.97z"></path>
<path fill="#a36ffe" style="fill: var(--color3, #a36ffe)" d="M27.905 20.024c-0.014-0.137-0.13-0.242-0.268-0.242s-0.254 0.104-0.268 0.242l-0.213 2.054c-0.087 0.838-0.749 1.5-1.587 1.587l-2.054 0.213c-0.137 0.014-0.242 0.13-0.242 0.268s0.104 0.254 0.242 0.268l2.054 0.213c0.838 0.087 1.5 0.749 1.587 1.587l0.213 2.054c0.014 0.137 0.13 0.242 0.268 0.242s0.254-0.104 0.268-0.242l0.213-2.054c0.087-0.838 0.749-1.5 1.587-1.587l2.054-0.213c0.137-0.014 0.242-0.13 0.242-0.268s-0.104-0.254-0.242-0.268l-2.054-0.213c-0.838-0.087-1.5-0.749-1.587-1.587l-0.213-2.054z"></path>
</symbol>
<symbol id="icon-Group-5604" viewBox="0 0 32 32">
<path fill="#4be1f4" style="fill: var(--color4, #4be1f4)" d="M16.062 0.501c-0.022-0.212-0.201-0.373-0.414-0.373s-0.392 0.161-0.414 0.373l-0.329 3.168c-0.134 1.292-1.156 2.314-2.448 2.448l-3.168 0.329c-0.212 0.022-0.373 0.201-0.373 0.414s0.161 0.392 0.373 0.414l3.168 0.329c1.292 0.134 2.314 1.156 2.448 2.448l0.329 3.168c0.022 0.212 0.201 0.373 0.414 0.373s0.392-0.161 0.414-0.373l0.329-3.168c0.134-1.292 1.156-2.314 2.448-2.448l3.168-0.329c0.212-0.022 0.373-0.201 0.373-0.414s-0.161-0.392-0.373-0.414l-3.168-0.329c-1.292-0.134-2.314-1.156-2.448-2.448l-0.329-3.168z"></path>
<path fill="#f87388" style="fill: var(--color5, #f87388)" d="M28.429 25.179c-0.011-0.106-0.1-0.186-0.207-0.186s-0.196 0.081-0.207 0.186l-0.164 1.584c-0.067 0.646-0.578 1.157-1.224 1.224l-1.584 0.164c-0.106 0.011-0.186 0.1-0.186 0.207s0.081 0.196 0.186 0.207l1.584 0.164c0.646 0.067 1.157 0.578 1.224 1.224l0.164 1.584c0.011 0.106 0.1 0.187 0.207 0.187s0.196-0.081 0.207-0.187l0.164-1.584c0.067-0.646 0.578-1.157 1.224-1.224l1.584-0.164c0.106-0.011 0.187-0.1 0.187-0.207s-0.081-0.196-0.187-0.207l-1.584-0.164c-0.646-0.067-1.157-0.578-1.224-1.224l-0.164-1.584z"></path>
<path fill="#c8d316" style="fill: var(--color2, #c8d316)" d="M3.983 19.51c-0.011-0.106-0.1-0.187-0.207-0.187s-0.196 0.081-0.207 0.187l-0.164 1.584c-0.067 0.646-0.578 1.157-1.224 1.224l-1.584 0.164c-0.106 0.011-0.187 0.1-0.187 0.207s0.081 0.196 0.187 0.207l1.584 0.164c0.646 0.067 1.157 0.578 1.224 1.224l0.164 1.584c0.011 0.106 0.1 0.186 0.207 0.186s0.196-0.081 0.207-0.186l0.164-1.584c0.067-0.646 0.578-1.157 1.224-1.224l1.584-0.164c0.106-0.011 0.187-0.1 0.187-0.207s-0.081-0.196-0.187-0.207l-1.584-0.164c-0.646-0.067-1.157-0.578-1.224-1.224l-0.164-1.584z"></path>
</symbol>
<symbol id="icon-designer" viewBox="0 0 29 23">
<path fill-rule="evenodd" clip-rule="evenodd" d="M23.0699 10.135C23.0492 9.93719 22.8816 9.78687 22.6817 9.78687C22.4818 9.78687 22.3142 9.93719 22.2935 10.135L21.985 13.0915C21.8592 14.2974 20.9011 15.2506 19.6889 15.3758L16.7172 15.6827C16.5183 15.7032 16.3672 15.87 16.3672 16.0689C16.3672 16.2678 16.5183 16.4345 16.7172 16.4551L19.6889 16.762C20.9011 16.8871 21.8592 17.8403 21.985 19.0462L22.2935 22.0027C22.3142 22.2005 22.4818 22.3509 22.6817 22.3509C22.8816 22.3509 23.0492 22.2005 23.0699 22.0027L23.3784 19.0462C23.5042 17.8403 24.4623 16.8871 25.6745 16.762L28.6462 16.4551C28.8451 16.4345 28.9962 16.2678 28.9962 16.0689C28.9962 15.87 28.8451 15.7032 28.6462 15.6827L25.6745 15.3758C24.4623 15.2506 23.5042 14.2974 23.3784 13.0915L23.0699 10.135Z" fill="#F87388"/>
<path fill-rule="evenodd" clip-rule="evenodd" d="M5.05166 0.91294C5.0361 0.763054 4.90978 0.64917 4.75909 0.64917C4.6084 0.64917 4.48208 0.763054 4.46652 0.91294L4.23402 3.15268C4.13918 4.06626 3.41709 4.78835 2.50351 4.88319L0.26377 5.11569C0.113884 5.13125 0 5.25757 0 5.40826C0 5.55895 0.113884 5.68527 0.26377 5.70083L2.50351 5.93333C3.41709 6.02817 4.13918 6.75026 4.23402 7.66384L4.46652 9.90358C4.48208 10.0535 4.6084 10.1674 4.75909 10.1674C4.90978 10.1674 5.0361 10.0535 5.05166 9.90358L5.28416 7.66384C5.379 6.75027 6.10109 6.02817 7.01467 5.93333L9.25441 5.70083C9.4043 5.68527 9.51818 5.55895 9.51818 5.40826C9.51818 5.25757 9.4043 5.13125 9.25441 5.11569L7.01467 4.88319C6.1011 4.78835 5.379 4.06626 5.28416 3.15268L5.05166 0.91294Z" fill="#C8D316"/>
</symbol>
<symbol id="icon-tools" viewBox="0 0 28 23">
<path fill-rule="evenodd" clip-rule="evenodd" d="M3.63807 15.6406C3.62687 15.5327 3.53589 15.4507 3.42737 15.4507C3.31885 15.4507 3.22788 15.5327 3.21667 15.6406L3.04923 17.2536C2.98093 17.9116 2.4609 18.4316 1.80296 18.4999L0.18996 18.6674C0.0820165 18.6786 0 18.7695 0 18.8781C0 18.9866 0.0820165 19.0775 0.18996 19.0888L1.80296 19.2562C2.4609 19.3245 2.98093 19.8445 3.04923 20.5025L3.21667 22.1155C3.22788 22.2234 3.31885 22.3054 3.42737 22.3054C3.53589 22.3054 3.62687 22.2234 3.63807 22.1155L3.80551 20.5025C3.87381 19.8445 4.39385 19.3245 5.05178 19.2562L6.66478 19.0888C6.77273 19.0775 6.85474 18.9866 6.85474 18.8781C6.85474 18.7695 6.77273 18.6786 6.66478 18.6674L5.05178 18.4999C4.39385 18.4316 3.87381 17.9116 3.80551 17.2536L3.63807 15.6406Z" fill="#FFC803"/>
<path d="M20.5485 0.865723L20.2147 4.08066C20.0557 5.61314 18.8444 6.82443 17.3119 6.98351L14.097 7.31725L17.3119 7.65098C18.8444 7.81006 20.0557 9.02135 20.2147 10.5538L20.5485 13.7688L20.8822 10.5538C21.0413 9.02135 22.2526 7.81006 23.7851 7.65098L27 7.31725L23.7851 6.98351C22.2526 6.82443 21.0413 5.61314 20.8822 4.08067L20.5485 0.865723Z" fill="#77E6FF" stroke="#77E6FF" stroke-width="0.856971" stroke-linejoin="round"/>
</symbol>
<symbol id="icon-tools" viewBox="0 0 28 23">
<path fill-rule="evenodd" clip-rule="evenodd" d="M3.63807 15.6406C3.62687 15.5327 3.53589 15.4507 3.42737 15.4507C3.31885 15.4507 3.22788 15.5327 3.21667 15.6406L3.04923 17.2536C2.98093 17.9116 2.4609 18.4316 1.80296 18.4999L0.18996 18.6674C0.0820165 18.6786 0 18.7695 0 18.8781C0 18.9866 0.0820165 19.0775 0.18996 19.0888L1.80296 19.2562C2.4609 19.3245 2.98093 19.8445 3.04923 20.5025L3.21667 22.1155C3.22788 22.2234 3.31885 22.3054 3.42737 22.3054C3.53589 22.3054 3.62687 22.2234 3.63807 22.1155L3.80551 20.5025C3.87381 19.8445 4.39385 19.3245 5.05178 19.2562L6.66478 19.0888C6.77273 19.0775 6.85474 18.9866 6.85474 18.8781C6.85474 18.7695 6.77273 18.6786 6.66478 18.6674L5.05178 18.4999C4.39385 18.4316 3.87381 17.9116 3.80551 17.2536L3.63807 15.6406Z" fill="#FFC803"/>
<path d="M20.5485 0.865723L20.2147 4.08066C20.0557 5.61314 18.8444 6.82443 17.3119 6.98351L14.097 7.31725L17.3119 7.65098C18.8444 7.81006 20.0557 9.02135 20.2147 10.5538L20.5485 13.7688L20.8822 10.5538C21.0413 9.02135 22.2526 7.81006 23.7851 7.65098L27 7.31725L23.7851 6.98351C22.2526 6.82443 21.0413 5.61314 20.8822 4.08067L20.5485 0.865723Z" fill="#77E6FF" stroke="#77E6FF" stroke-width="0.856971" stroke-linejoin="round"/>
</symbol>
<symbol id="icon-works" viewBox="0 0 26 21">
<path fill-rule="evenodd" clip-rule="evenodd" d="M7.27604 0.379915C7.25363 0.164031 7.07169 0 6.85465 0C6.63761 0 6.45567 0.164031 6.43325 0.379915L6.09837 3.60588C5.96178 4.92172 4.92173 5.96178 3.60588 6.09837L0.379915 6.43325C0.164031 6.45567 0 6.63761 0 6.85465C0 7.07169 0.164031 7.25363 0.379915 7.27604L3.60588 7.61092C4.92172 7.74752 5.96178 8.78757 6.09837 10.1034L6.43325 13.3294C6.45567 13.5453 6.63761 13.7093 6.85465 13.7093C7.07169 13.7093 7.25363 13.5453 7.27604 13.3294L7.61092 10.1034C7.74752 8.78758 8.78757 7.74752 10.1034 7.61092L13.3294 7.27604C13.5453 7.25363 13.7093 7.07169 13.7093 6.85465C13.7093 6.63761 13.5453 6.45567 13.3294 6.43325L10.1034 6.09837C8.78757 5.96178 7.74752 4.92173 7.61092 3.60588L7.27604 0.379915Z" fill="#C8D316"/>
<path fill-rule="evenodd" clip-rule="evenodd" d="M22.6736 13.4328C22.662 13.3212 22.5679 13.2363 22.4557 13.2363C22.3434 13.2363 22.2493 13.3212 22.2377 13.4328L22.0645 15.1014C21.9938 15.782 21.4559 16.32 20.7753 16.3907L19.1067 16.5639C18.995 16.5755 18.9102 16.6696 18.9102 16.7818C18.9102 16.8941 18.995 16.9882 19.1067 16.9998L20.7753 17.173C21.4559 17.2437 21.9938 17.7816 22.0645 18.4622L22.2377 20.1308C22.2493 20.2425 22.3434 20.3273 22.4557 20.3273C22.5679 20.3273 22.662 20.2425 22.6736 20.1308L22.8468 18.4622C22.9175 17.7816 23.4555 17.2437 24.1361 17.173L25.8047 16.9998C25.9163 16.9882 26.0012 16.8941 26.0012 16.7818C26.0012 16.6696 25.9163 16.5755 25.8047 16.5639L24.1361 16.3907C23.4555 16.32 22.9175 15.782 22.8468 15.1014L22.6736 13.4328Z" fill="#A36FFE"/>
</symbol>
<symbol id="icon-play" viewBox="0 0 24 24">
<g clip-path="url(#clip0_1_5251)">
<path d="M17 5.00024H7C4.79086 5.00024 3 6.7911 3 9.00024V15.0002C3 17.2094 4.79086 19.0002 7 19.0002H17C19.2091 19.0002 21 17.2094 21 15.0002V9.00024C21 6.7911 19.2091 5.00024 17 5.00024Z" stroke="#FFCF01" stroke-width="1.8" stroke-linecap="round" stroke-linejoin="round"/>
<path d="M10 9L15 12L10 15V9Z" stroke="#FFCF01" stroke-width="1.8" stroke-linecap="round" stroke-linejoin="round"/>
</g>
<defs>
<clipPath id="clip0_1_5251">
<rect width="24" height="24" fill="white"/>
</clipPath>
</defs>
</symbol>
<symbol id="icon-logo" viewBox="0 0 53 32">
<path d="M37.968 7.22798L40.9274 19.5828C41.2518 20.937 40.2253 22.2384 38.8328 22.2384H12.1425C9.59998 22.2384 7.32802 20.6507 6.45401 18.2631L6.21159 17.6009C6.08297 17.2496 6.34306 16.8773 6.71726 16.8773H24.1481C24.3545 16.8773 24.5218 16.71 24.5218 16.5036C24.5218 14.9555 23.2668 13.7004 21.7187 13.7004H9.01701C6.47448 13.7004 4.20254 12.1127 3.32852 9.72514L3.11033 9.1291C2.9817 8.77777 3.24181 8.40559 3.61597 8.40559H20.177C20.3833 8.40559 20.5507 8.23824 20.5507 8.0318C20.5507 6.48367 19.2957 5.22866 17.7475 5.22866H5.91572C3.37322 5.22866 1.10126 3.64097 0.227246 1.2534L0.0332865 0.72357C-0.0953355 0.37218 0.164768 0 0.538929 0H28.8042C33.1628 0 36.9527 2.98926 37.968 7.22798Z" fill="url(#paint0_linear_1_2453)"/>
<path d="M48.4482 10.9056L52.5984 28.73C52.9131 30.0807 51.8876 31.3722 50.5008 31.3722H22.6625C20.0259 31.3722 17.6921 29.6667 16.8911 27.1547L16.6091 26.27C16.443 25.749 16.8317 25.2169 17.3786 25.2169H42.7988C44.1934 25.2169 45.2203 23.9118 44.8921 22.5563L41.1791 7.21945C41.056 6.71113 41.4411 6.22168 41.9641 6.22168H42.5483C45.3646 6.22168 47.8095 8.16262 48.4482 10.9056Z" fill="url(#paint1_linear_1_2453)"/>
<defs>
<linearGradient id="paint0_linear_1_2453" x1="20.4845" y1="0" x2="20.4845" y2="22.2384" gradientUnits="userSpaceOnUse">
<stop stop-color="#FFC803"/>
<stop offset="1" stop-color="#FFA903"/>
</linearGradient>
<linearGradient id="paint1_linear_1_2453" x1="34.5621" y1="6.22168" x2="34.5621" y2="31.3722" gradientUnits="userSpaceOnUse">
<stop stop-color="#FF7421"/>
<stop offset="1" stop-color="#EC5901"/>
</linearGradient>
</defs>
</symbol>
<symbol id="icon-btn" viewBox="0 0 13 12">
<path d="M6.5 1L6.97023 5.52977L11.5 6L6.97023 6.47023L6.5 11L6.02977 6.47023L1.5 6L6.02977 5.52977L6.5 1Z" stroke="#505F6D" stroke-width="1.35356" stroke-linejoin="round"/>
</symbol>
<symbol id="icon-ethereum" viewBox="0 0 36 37">
<circle cx="18.0001" cy="18.482" r="18.0001" fill="url(#paint0_linear_2042_3284)"/>
<path d="M17.9512 7.68213L17.808 8.16852V22.2811L17.9512 22.4239L24.5019 18.5517L17.9512 7.68213Z" fill="#10151A"/>
<path d="M17.9514 7.68213L11.4005 18.5517L17.9514 22.4239V15.5741V7.68213Z" fill="#10151A"/>
<path d="M17.9512 23.6641L17.8705 23.7626V28.7897L17.9512 29.0253L24.506 19.7939L17.9512 23.6641Z" fill="#10151A"/>
<path d="M17.9512 29.0253V23.6641L11.4003 19.7939L17.9512 29.0253Z" fill="#10151A"/>
<path d="M17.951 22.4238L24.5018 18.5516L17.951 15.574V22.4238Z" fill="#10151A"/>
<path d="M11.4003 18.5516L17.9512 22.4238V15.574L11.4003 18.5516Z" fill="#10151A"/>
<defs>
<linearGradient id="paint0_linear_2042_3284" x1="18.0001" y1="0.481934" x2="18.0001" y2="36.482" gradientUnits="userSpaceOnUse">
<stop stop-color="#7993F9"/>
<stop offset="1" stop-color="#627EEA"/>
</linearGradient>
</defs>
</symbol>
<symbol id="icon-polygon" viewBox="0 0 36 37">
<circle cx="18.9993" cy="18.5142" r="18.033" fill="url(#paint0_linear_2042_3152)"/>
<path d="M24.4098 14.8923C24.0253 14.6711 23.5309 14.6711 23.0915 14.8923L20.0153 16.717L17.928 17.8782L14.9068 19.7029C14.5223 19.9241 14.0279 19.9241 13.5884 19.7029L11.2264 18.2653C10.8419 18.0441 10.5672 17.6017 10.5672 17.1041V14.3394C10.5672 13.897 10.787 13.4547 11.2264 13.1782L13.5884 11.7958C13.9729 11.5747 14.4673 11.5747 14.9068 11.7958L17.2688 13.2335C17.6533 13.4547 17.928 13.897 17.928 14.3947V16.2194L20.0153 15.0029V13.1229C20.0153 12.6806 19.7956 12.2382 19.3562 11.9617L14.9617 9.3629C14.5772 9.14173 14.0828 9.14173 13.6434 9.3629L9.13903 12.017C8.69958 12.2382 8.47986 12.6806 8.47986 13.1229V18.3206C8.47986 18.7629 8.69958 19.2053 9.13903 19.4817L13.5884 22.0806C13.9729 22.3017 14.4673 22.3017 14.9068 22.0806L17.928 20.3111L20.0153 19.0947L23.0365 17.3253C23.4211 17.1041 23.9154 17.1041 24.3549 17.3253L26.7169 18.7076C27.1014 18.9288 27.3761 19.3711 27.3761 19.8688V22.6335C27.3761 23.0759 27.1564 23.5182 26.7169 23.7947L24.4098 25.177C24.0253 25.3982 23.5309 25.3982 23.0915 25.177L20.7294 23.7947C20.3449 23.5735 20.0703 23.1311 20.0703 22.6335V20.8641L17.9829 22.0806V23.9053C17.9829 24.3476 18.2026 24.79 18.6421 25.0664L23.0915 27.6653C23.476 27.8864 23.9704 27.8864 24.4098 27.6653L28.8592 25.0664C29.2437 24.8453 29.5184 24.4029 29.5184 23.9053V18.6523C29.5184 18.21 29.2987 17.7676 28.8592 17.4911L24.4098 14.8923Z" fill="#10151A"/>
<defs>
<linearGradient id="paint0_linear_2042_3152" x1="18.9993" y1="0.481201" x2="18.9993" y2="36.5473" gradientUnits="userSpaceOnUse">
<stop stop-color="#965EF4"/>
<stop offset="1" stop-color="#8247E5"/>
</linearGradient>
</defs>
</symbol>
<symbol id="icon-gnosis" viewBox="0 0 36 37">
<path d="M17.9999 0.481201C8.07609 0.481201 -0.000732422 8.52672 -0.000732422 18.4819C-0.000732422 28.4057 8.04479 36.4826 17.9999 36.4826C27.9551 36.4826 36.0006 28.437 36.0006 18.4819C36.0006 8.55803 27.9238 0.481201 17.9999 0.481201ZM31.1796 19.4524H22.821C22.2575 22.2072 19.5965 23.9917 16.8416 23.4282C14.0868 22.8647 12.3023 20.2037 12.8658 17.4488C13.4293 14.6939 16.0903 12.9095 18.8452 13.473C20.9427 13.88 22.5393 15.5705 22.8836 17.6992H31.1796C31.6805 17.6992 32.0561 18.1062 32.0561 18.5758C32.0561 19.0767 31.6492 19.4524 31.1796 19.4524Z" fill="#008C73"/>
</symbol>
<symbol id="icon-snapshot" viewBox="0 0 18 21">
<path d="M17.3642 9.19012C17.2839 8.97508 17.0783 8.83209 16.8484 8.83209H10.2074L14.038 1.38427C14.1584 1.14998 14.0963 0.863437 13.8889 0.700643C13.7889 0.621446 13.6684 0.582397 13.5485 0.582397C13.4204 0.582397 13.2922 0.627496 13.1894 0.716042L9.14871 4.20566L1.08992 11.1656C0.916129 11.3158 0.853432 11.5583 0.933728 11.7734C1.01402 11.9884 1.21917 12.132 1.44906 12.132H8.09001L4.25943 19.5798C4.13899 19.8141 4.20113 20.1006 4.40847 20.2634C4.50857 20.3426 4.62901 20.3817 4.74891 20.3817C4.87705 20.3817 5.0052 20.3366 5.10804 20.248L9.14871 16.7584L17.2075 9.7984C17.3818 9.64826 17.444 9.40571 17.3642 9.19012Z" fill="#10151A"/>
</symbol>
<symbol id="icon-ens" viewBox="0 0 22 24">
<path d="M3.18918 10.0848C3.42084 10.5601 3.99417 11.4995 3.99417 11.4995L10.6223 0.9823L4.15343 5.31813C3.76798 5.56495 3.45174 5.89904 3.23262 6.29091C2.938 6.8821 2.78146 7.52792 2.77396 8.18323C2.76646 8.83853 2.90817 9.48751 3.18918 10.0848Z" fill="#10151A"/>
<path d="M0.562835 13.5479C0.635872 14.5539 0.931999 15.5333 1.43139 16.4206C1.93077 17.3079 2.62189 18.0824 3.45847 18.6925L10.6135 23.4814C10.6135 23.4814 6.13693 17.2889 2.36103 11.127C1.97875 10.476 1.72176 9.76425 1.60237 9.0258C1.54951 8.69144 1.54951 8.35131 1.60237 8.01691C1.50392 8.19201 1.3128 8.55055 1.3128 8.55055C0.92994 9.30004 0.669193 10.1015 0.53967 10.9269C0.465117 11.7994 0.47287 12.6767 0.562835 13.5479Z" fill="#10151A"/>
<path d="M18.8169 14.3789C18.5852 13.9037 18.012 12.9642 18.012 12.9642L11.3838 23.4814L17.8527 19.1484C18.2382 18.9015 18.5543 18.5674 18.7735 18.1755C19.0685 17.584 19.2253 16.9377 19.2328 16.2818C19.2403 15.6261 19.0984 14.9766 18.8169 14.3789Z" fill="#10151A"/>
<path d="M21.4432 10.9158C21.3702 9.90977 21.0741 8.93035 20.5747 8.0431C20.0753 7.15584 19.3842 6.38125 18.5476 5.77117L11.3925 0.9823C11.3925 0.9823 15.8663 7.17476 19.645 13.3366C20.0264 13.9878 20.2823 14.6996 20.4008 15.4379C20.4537 15.7722 20.4537 16.1124 20.4008 16.4468C20.4993 16.2716 20.6904 15.9131 20.6904 15.9131C21.0732 15.1636 21.334 14.3622 21.4635 13.5368C21.5391 12.6643 21.5323 11.7871 21.4432 10.9158Z" fill="#10151A"/>
<path d="M3.23262 6.29091C3.45174 5.89904 3.76798 5.56495 4.15343 5.31813L10.6223 0.9823L3.99416 11.5022C3.99416 11.5022 3.41503 10.5628 3.18917 10.0875C2.90772 9.48992 2.76577 8.84044 2.77327 8.18461C2.78077 7.5288 2.93756 6.88247 3.23262 6.29091ZM0.562835 13.5479C0.635872 14.5539 0.931999 15.5333 1.43139 16.4206C1.93077 17.3079 2.62189 18.0824 3.45847 18.6925L10.6135 23.4814C10.6135 23.4814 6.13693 17.2889 2.36103 11.127C1.97875 10.476 1.72176 9.76425 1.60237 9.0258C1.54951 8.69144 1.54951 8.35131 1.60237 8.01691C1.50392 8.19201 1.3128 8.55055 1.3128 8.55055C0.92994 9.30004 0.669193 10.1015 0.53967 10.9269C0.465117 11.7994 0.47287 12.6767 0.562835 13.5479ZM18.8053 14.3817C18.5736 13.9064 18.0004 12.967 18.0004 12.967L11.3838 23.4814L17.8527 19.1484C18.2382 18.9015 18.5543 18.5674 18.7735 18.1755C19.0685 17.584 19.2253 16.9377 19.2328 16.2818C19.2403 15.6261 19.0984 14.9766 18.8169 14.3789L18.8053 14.3817ZM21.4316 10.9186C21.3586 9.91258 21.0625 8.93313 20.5631 8.04588C20.0637 7.15862 19.3726 6.38403 18.536 5.77395L11.3925 0.9823C11.3925 0.9823 15.8663 7.17476 19.645 13.3366C20.0264 13.9878 20.2823 14.6996 20.4008 15.4379C20.4537 15.7722 20.4537 16.1124 20.4008 16.4468C20.4993 16.2716 20.6904 15.9131 20.6904 15.9131C21.0732 15.1636 21.334 14.3622 21.4635 13.5368C21.5391 12.6643 21.5323 11.7871 21.4432 10.9158L21.4316 10.9186Z" fill="#10151A"/>
</symbol>
<symbol id="icon-opensea" viewBox="0 0 23 21">
<path d="M22.7546 13.4478V14.6074C22.7546 14.674 22.7139 14.7332 22.6548 14.759C22.2923 14.9144 21.0513 15.484 20.5353 16.2016C19.2186 18.0343 18.2125 20.6549 15.9636 20.6549H6.5816C3.25635 20.6549 0.561768 17.9511 0.561768 14.6148V14.5075C0.561768 14.4188 0.63389 14.3466 0.722694 14.3466H5.95277C6.05633 14.3466 6.13218 14.4428 6.12294 14.5445C6.08594 14.8848 6.14882 15.2325 6.3097 15.5488C6.62044 16.1794 7.26402 16.5733 7.95941 16.5733H10.5485V14.5519H7.98897C7.85768 14.5519 7.78 14.4003 7.85584 14.293C7.88356 14.2505 7.91501 14.2061 7.94829 14.1561C8.19058 13.8122 8.53639 13.2777 8.8804 12.6692C9.11525 12.2587 9.34274 11.8203 9.52583 11.3802C9.56283 11.3007 9.59243 11.2193 9.62199 11.1398C9.67195 10.9992 9.72371 10.8679 9.76071 10.7366C9.79768 10.6257 9.82728 10.5091 9.85688 10.4C9.9438 10.0264 9.9808 9.63065 9.9808 9.22008C9.9808 9.05919 9.9734 8.89091 9.9586 8.72998C9.9512 8.55429 9.929 8.37861 9.9068 8.20292C9.892 8.04755 9.86428 7.89407 9.83468 7.73318C9.79768 7.49829 9.74591 7.26528 9.68671 7.0304L9.66639 6.94163C9.62199 6.78075 9.58503 6.62722 9.53323 6.46633C9.38714 5.96144 9.21881 5.4695 9.04129 5.009C8.97657 4.82591 8.90256 4.65023 8.8286 4.47454C8.71947 4.21005 8.60851 3.96964 8.50683 3.74215C8.45503 3.63859 8.41062 3.54426 8.36626 3.4481C8.31634 3.33898 8.26454 3.22989 8.21278 3.12629C8.17577 3.04677 8.13321 2.9728 8.10365 2.89884L7.7874 2.31442C7.743 2.23489 7.817 2.14057 7.90388 2.16461L9.88276 2.70095H9.88832C9.892 2.70095 9.89388 2.70279 9.89572 2.70279L10.1565 2.77492L10.4431 2.85628L10.5485 2.88588V1.70968C10.5485 1.14189 11.0035 0.681396 11.5657 0.681396C11.8468 0.681396 12.102 0.79604 12.2851 0.982848C12.4682 1.16965 12.5829 1.42486 12.5829 1.70968V3.4555L12.7937 3.51466C12.8104 3.52022 12.827 3.52762 12.8418 3.5387C12.8936 3.57755 12.9676 3.63491 13.0619 3.70515C13.1359 3.76435 13.2154 3.83648 13.3116 3.91044C13.5021 4.06396 13.7295 4.26185 13.9792 4.4893C14.0458 4.54666 14.1105 4.60582 14.1697 4.66503C14.4915 4.9646 14.8521 5.31601 15.1961 5.70439C15.2923 5.81347 15.3866 5.92443 15.4828 6.04096C15.5789 6.15932 15.6807 6.27585 15.7694 6.39237C15.8859 6.5477 16.0117 6.70858 16.1208 6.87691C16.1726 6.95643 16.2318 7.0378 16.2817 7.11732C16.4222 7.33001 16.5462 7.5501 16.6645 7.77014C16.7145 7.87187 16.7663 7.98283 16.8106 8.09196C16.9419 8.38601 17.0455 8.68562 17.1121 8.98523C17.1324 9.04995 17.1472 9.12024 17.1546 9.18312V9.19788C17.1768 9.28668 17.1842 9.38101 17.1916 9.47717C17.2212 9.78414 17.2064 10.0912 17.1398 10.4C17.1121 10.5313 17.0751 10.6552 17.0307 10.7865C16.9863 10.9123 16.9419 11.0436 16.8846 11.1675C16.7737 11.4246 16.6423 11.6817 16.487 11.9221C16.437 12.0108 16.3779 12.1051 16.3187 12.1939C16.254 12.2882 16.1874 12.377 16.1282 12.464C16.0468 12.5749 15.9599 12.6914 15.8711 12.795C15.7916 12.9041 15.7102 13.0132 15.6215 13.1094C15.4976 13.2555 15.3792 13.3942 15.2553 13.5274C15.1813 13.6143 15.1018 13.703 15.0204 13.7826C14.9409 13.8713 14.8595 13.9509 14.7855 14.0248C14.6616 14.1487 14.5581 14.2449 14.4711 14.3244L14.2677 14.5112C14.2381 14.5371 14.1993 14.5519 14.1586 14.5519H12.5829V16.5733H14.5655C15.0093 16.5733 15.431 16.4161 15.7713 16.1276C15.8878 16.0259 16.3964 15.5857 16.9974 14.9218C17.0177 14.8996 17.0437 14.883 17.0732 14.8756L22.5493 13.2925C22.651 13.2629 22.7546 13.3406 22.7546 13.4478Z" fill="#10151A"/>
</symbol>
<symbol id="icon-star" viewBox="0 0 16 16">
<path d="M8 1.50024L8.338 4.7563C8.49726 6.29041 9.70983 7.50299 11.2439 7.66224L14.5 8.00024L11.2439 8.33825C9.70983 8.4975 8.49726 9.71008 8.338 11.2442L8 14.5002L7.662 11.2442C7.50274 9.71008 6.29017 8.4975 4.75605 8.33825L1.5 8.00024L4.75605 7.66224C6.29017 7.50299 7.50274 6.29041 7.662 4.7563L8 1.50024Z" stroke-width="1.02688" stroke-linejoin="round"/>
</symbol>
</defs>
</svg>
