<svg width="142" height="22" viewBox="0 0 142 22" fill="none" xmlns="http://www.w3.org/2000/svg">
<g clip-path="url(#clip0_1_4751)">
<path d="M21.4106 0.294647V7.43152H14.2737V21.7053H7.13687V7.43152H0V0.294647H21.4106Z" fill="#0A9E01"/>
<path d="M42.8209 0.294648H28.5471V7.43152H42.8209V0.294648Z" fill="#0A9E01"/>
<path d="M42.8207 14.5685V21.7053H21.41V7.4316H28.5469V14.5685H42.8207Z" fill="#0A9E01"/>
<path d="M56.3091 5.29054H46.5078V8.1215H49.7908V16.995H53.0262V8.1215H56.3091V5.29054Z" fill="#0A9E01"/>
<path d="M59.997 8.02634C57.6894 8.02634 55.9766 9.57266 55.9766 12.6177C55.9766 15.306 57.4277 17.1853 60.0684 17.1853C61.4482 17.1853 62.5663 16.8285 63.6368 16.1862L62.4949 14.2592C61.6147 14.7112 60.9962 14.8777 60.2111 14.8777C59.4023 14.8777 58.8313 14.4495 58.7124 13.4742H63.8747C63.8985 13.3314 63.8985 13.1411 63.8985 12.8794C63.9223 9.62024 62.4235 8.02634 59.997 8.02634ZM58.7599 11.5948C58.8551 10.7146 59.2357 10.2626 59.9256 10.2626C60.8058 10.2626 61.1151 10.7146 61.2578 11.5948H58.7599Z" fill="#0A9E01"/>
<path d="M69.6326 14.735C68.8238 14.735 68.3956 14.0213 68.3956 12.6177C68.3956 11.2379 68.7762 10.4529 69.5613 10.4529C70.2036 10.4529 70.4891 10.8097 70.9173 11.5948L72.987 10.0247C72.2257 8.7876 71.2741 8.02634 69.6088 8.02634C66.8017 8.02634 65.4219 9.88192 65.4219 12.5701C65.4219 15.5201 66.9682 17.1615 69.5375 17.1615C71.0838 17.1615 72.0354 16.5668 73.0583 15.0681L71.1552 13.5693C70.5842 14.4257 70.2036 14.735 69.6326 14.735Z" fill="#0A9E01"/>
<path d="M80.0032 8.02634C78.9565 8.02634 78.338 8.38318 77.7908 8.7876V4.81474L74.7695 6.02801V17.0188H77.7908V11.9992C77.7908 10.9049 78.1714 10.5956 78.8138 10.5956C79.4323 10.5956 79.8129 10.9049 79.8129 12.023V17.0188H82.8342V11.6424C82.8342 9.33476 81.9064 8.02634 80.0032 8.02634Z" fill="#0A9E01"/>
<path d="M90.0874 14.3543C88.6838 14.3543 88.1128 12.9269 88.1128 11.1427C88.1128 9.28712 88.7076 7.93112 90.0636 7.93112C91.1341 7.93112 91.5385 8.62102 91.943 9.71534L94.8929 8.54965C94.084 6.33722 92.9421 5.10016 90.0636 5.10016C86.9234 5.10016 84.7109 7.38396 84.7109 11.1427C84.7109 14.616 86.5665 17.1853 90.0398 17.1853C92.8232 17.1853 94.1316 15.6865 94.9167 14.164L92.1809 12.7128C91.5385 13.8071 91.1103 14.3543 90.0874 14.3543Z" fill="black"/>
<path d="M99.7713 8.85905V8.21673H96.75V16.9951H99.7713V12.2134C99.7713 11.1429 100.223 10.786 100.961 10.786C101.555 10.786 101.984 11.0953 102.364 11.5235L103.078 8.40705C102.721 8.19294 102.293 8.02642 101.651 8.02642C100.866 8.02642 100.271 8.35947 99.7713 8.85905Z" fill="black"/>
<path d="M109.527 13.2364C109.527 14.3307 109.147 14.6399 108.528 14.6399C107.91 14.6399 107.529 14.3307 107.529 13.2126V8.21675H104.508V13.5932C104.508 15.9008 105.436 17.1854 107.363 17.1854C108.386 17.1854 109.028 16.8286 109.551 16.4242V17.0189H112.572V8.24054H109.551L109.527 13.2364Z" fill="black"/>
<path d="M119.968 8.02634C118.921 8.02634 118.303 8.38318 117.756 8.7876V8.19286H114.734V16.9712H117.756V11.9516C117.756 10.8573 118.136 10.548 118.779 10.548C119.397 10.548 119.778 10.8573 119.778 11.9754V16.9712H122.799V11.5948C122.799 9.33476 121.895 8.02634 119.968 8.02634Z" fill="black"/>
<path d="M128.797 14.735C127.988 14.735 127.56 14.0213 127.56 12.6177C127.56 11.2379 127.941 10.4529 128.702 10.4529C129.344 10.4529 129.63 10.8097 130.058 11.5948L132.128 10.0247C131.366 8.7876 130.415 8.02634 128.749 8.02634C125.942 8.02634 124.562 9.88192 124.562 12.5701C124.562 15.5201 126.109 17.1615 128.678 17.1615C130.224 17.1615 131.176 16.5668 132.199 15.0681L130.296 13.5693C129.772 14.4257 129.368 14.735 128.797 14.735Z" fill="black"/>
<path d="M139.171 8.02634C138.124 8.02634 137.506 8.38318 136.959 8.7876V4.81474L133.938 6.02801V17.0188H136.959V11.9992C136.959 10.9049 137.339 10.5956 137.982 10.5956C138.6 10.5956 138.981 10.9049 138.981 12.023V17.0188H142.002V11.6424C142.026 9.33476 141.098 8.02634 139.171 8.02634Z" fill="black"/>
</g>
<defs>
<clipPath id="clip0_1_4751">
<rect width="142" height="21.4106" fill="white" transform="translate(0 0.294647)"/>
</clipPath>
</defs>
</svg>
